ISO-10303-21;
HEADER;
/* Generated by software containing ST-Developer
 * from STEP Tools, Inc. (www.steptools.com) 
 */

FILE_DESCRIPTION(
/* description */ (''),
/* implementation_level */ '2;1');

FILE_NAME(
/* name */ 'AIO-AIR-CASE-V2.step',
/* time_stamp */ '2026-05-30T21:55:02+10:00',
/* author */ (''),
/* organization */ (''),
/* preprocessor_version */ 'ST-DEVELOPER v20.1',
/* originating_system */ 'Autodesk Translation Framework v14.24.0.0',
/* authorisation */ '');

FILE_SCHEMA (('AUTOMOTIVE_DESIGN { 1 0 10303 214 3 1 1 }'));
ENDSEC;

DATA;
#10=MECHANICAL_DESIGN_GEOMETRIC_PRESENTATION_REPRESENTATION('',(#20,#21,
#22,#23),#1993);
#11=SHAPE_REPRESENTATION_RELATIONSHIP('SRR','None',#2000,#12);
#12=ADVANCED_BREP_SHAPE_REPRESENTATION('',(#24,#25,#26,#27),#1992);
#13=ELLIPSE('',#1292,1.121022507651,1.10399165683589);
#14=ELLIPSE('',#1293,1.11696924810811,1.09999997541308);
#15=ELLIPSE('',#1294,1.11696924810811,1.09999997541308);
#16=ELLIPSE('',#1315,0.507713305942862,0.5);
#17=ELLIPSE('',#1319,0.507713305942862,0.5);
#18=ELLIPSE('',#1323,0.507713305942862,0.5);
#19=ELLIPSE('',#1327,0.507713305942862,0.5);
#20=STYLED_ITEM('',(#2009),#24);
#21=STYLED_ITEM('',(#2009),#25);
#22=STYLED_ITEM('',(#2009),#26);
#23=STYLED_ITEM('',(#2009),#27);
#24=MANIFOLD_SOLID_BREP('Body1',#1234);
#25=MANIFOLD_SOLID_BREP('Body3',#1235);
#26=MANIFOLD_SOLID_BREP('Body4',#1236);
#27=MANIFOLD_SOLID_BREP('Body5',#1237);
#28=CIRCLE('',#1267,1.09999997541308);
#29=CIRCLE('',#1268,1.09999997541308);
#30=CIRCLE('',#1270,1.09999997541308);
#31=CIRCLE('',#1271,1.09999997541308);
#32=CIRCLE('',#1273,1.10399165683589);
#33=CIRCLE('',#1274,1.10399165683589);
#34=CIRCLE('',#1300,1.10399165683589);
#35=CIRCLE('',#1301,1.09999997541308);
#36=CIRCLE('',#1302,1.09999997541308);
#37=CIRCLE('',#1314,0.5);
#38=CIRCLE('',#1318,0.5);
#39=CIRCLE('',#1322,0.5);
#40=CIRCLE('',#1326,0.5);
#41=CYLINDRICAL_SURFACE('',#1266,1.09999997541308);
#42=CYLINDRICAL_SURFACE('',#1269,1.09999997541308);
#43=CYLINDRICAL_SURFACE('',#1272,1.10399165683589);
#44=CYLINDRICAL_SURFACE('',#1304,1.09999997541308);
#45=CYLINDRICAL_SURFACE('',#1305,1.09999997541308);
#46=CYLINDRICAL_SURFACE('',#1310,1.10399165683589);
#47=CYLINDRICAL_SURFACE('',#1313,0.5);
#48=CYLINDRICAL_SURFACE('',#1317,0.5);
#49=CYLINDRICAL_SURFACE('',#1321,0.5);
#50=CYLINDRICAL_SURFACE('',#1325,0.5);
#51=FACE_BOUND('',#139,.T.);
#52=FACE_BOUND('',#156,.T.);
#53=FACE_BOUND('',#157,.T.);
#54=FACE_BOUND('',#158,.T.);
#55=FACE_BOUND('',#159,.T.);
#56=FACE_BOUND('',#161,.T.);
#57=FACE_BOUND('',#162,.T.);
#58=FACE_BOUND('',#163,.T.);
#59=FACE_BOUND('',#164,.T.);
#60=FACE_BOUND('',#171,.T.);
#61=FACE_BOUND('',#173,.T.);
#62=FACE_BOUND('',#182,.T.);
#63=FACE_BOUND('',#183,.T.);
#64=FACE_BOUND('',#184,.T.);
#65=FACE_BOUND('',#185,.T.);
#66=FACE_BOUND('',#191,.T.);
#67=FACE_BOUND('',#192,.T.);
#68=FACE_BOUND('',#193,.T.);
#69=FACE_BOUND('',#194,.T.);
#70=FACE_BOUND('',#215,.T.);
#71=FACE_BOUND('',#218,.T.);
#72=FACE_OUTER_BOUND('',#136,.T.);
#73=FACE_OUTER_BOUND('',#137,.T.);
#74=FACE_OUTER_BOUND('',#138,.T.);
#75=FACE_OUTER_BOUND('',#140,.T.);
#76=FACE_OUTER_BOUND('',#141,.T.);
#77=FACE_OUTER_BOUND('',#142,.T.);
#78=FACE_OUTER_BOUND('',#143,.T.);
#79=FACE_OUTER_BOUND('',#144,.T.);
#80=FACE_OUTER_BOUND('',#145,.T.);
#81=FACE_OUTER_BOUND('',#146,.T.);
#82=FACE_OUTER_BOUND('',#147,.T.);
#83=FACE_OUTER_BOUND('',#148,.T.);
#84=FACE_OUTER_BOUND('',#149,.T.);
#85=FACE_OUTER_BOUND('',#150,.T.);
#86=FACE_OUTER_BOUND('',#151,.T.);
#87=FACE_OUTER_BOUND('',#152,.T.);
#88=FACE_OUTER_BOUND('',#153,.T.);
#89=FACE_OUTER_BOUND('',#154,.T.);
#90=FACE_OUTER_BOUND('',#155,.T.);
#91=FACE_OUTER_BOUND('',#160,.T.);
#92=FACE_OUTER_BOUND('',#165,.T.);
#93=FACE_OUTER_BOUND('',#166,.T.);
#94=FACE_OUTER_BOUND('',#167,.T.);
#95=FACE_OUTER_BOUND('',#168,.T.);
#96=FACE_OUTER_BOUND('',#169,.T.);
#97=FACE_OUTER_BOUND('',#170,.T.);
#98=FACE_OUTER_BOUND('',#172,.T.);
#99=FACE_OUTER_BOUND('',#174,.T.);
#100=FACE_OUTER_BOUND('',#175,.T.);
#101=FACE_OUTER_BOUND('',#176,.T.);
#102=FACE_OUTER_BOUND('',#177,.T.);
#103=FACE_OUTER_BOUND('',#178,.T.);
#104=FACE_OUTER_BOUND('',#179,.T.);
#105=FACE_OUTER_BOUND('',#180,.T.);
#106=FACE_OUTER_BOUND('',#181,.T.);
#107=FACE_OUTER_BOUND('',#186,.T.);
#108=FACE_OUTER_BOUND('',#187,.T.);
#109=FACE_OUTER_BOUND('',#188,.T.);
#110=FACE_OUTER_BOUND('',#189,.T.);
#111=FACE_OUTER_BOUND('',#190,.T.);
#112=FACE_OUTER_BOUND('',#195,.T.);
#113=FACE_OUTER_BOUND('',#196,.T.);
#114=FACE_OUTER_BOUND('',#197,.T.);
#115=FACE_OUTER_BOUND('',#198,.T.);
#116=FACE_OUTER_BOUND('',#199,.T.);
#117=FACE_OUTER_BOUND('',#200,.T.);
#118=FACE_OUTER_BOUND('',#201,.T.);
#119=FACE_OUTER_BOUND('',#202,.T.);
#120=FACE_OUTER_BOUND('',#203,.T.);
#121=FACE_OUTER_BOUND('',#204,.T.);
#122=FACE_OUTER_BOUND('',#205,.T.);
#123=FACE_OUTER_BOUND('',#206,.T.);
#124=FACE_OUTER_BOUND('',#207,.T.);
#125=FACE_OUTER_BOUND('',#208,.T.);
#126=FACE_OUTER_BOUND('',#209,.T.);
#127=FACE_OUTER_BOUND('',#210,.T.);
#128=FACE_OUTER_BOUND('',#211,.T.);
#129=FACE_OUTER_BOUND('',#212,.T.);
#130=FACE_OUTER_BOUND('',#213,.T.);
#131=FACE_OUTER_BOUND('',#214,.T.);
#132=FACE_OUTER_BOUND('',#216,.T.);
#133=FACE_OUTER_BOUND('',#217,.T.);
#134=FACE_OUTER_BOUND('',#219,.T.);
#135=FACE_OUTER_BOUND('',#220,.T.);
#136=EDGE_LOOP('',(#786,#787,#788,#789));
#137=EDGE_LOOP('',(#790,#791,#792,#793));
#138=EDGE_LOOP('',(#794,#795,#796,#797,#798,#799));
#139=EDGE_LOOP('',(#800,#801,#802,#803));
#140=EDGE_LOOP('',(#804,#805,#806,#807));
#141=EDGE_LOOP('',(#808,#809,#810,#811));
#142=EDGE_LOOP('',(#812,#813,#814,#815));
#143=EDGE_LOOP('',(#816,#817,#818,#819));
#144=EDGE_LOOP('',(#820,#821,#822,#823));
#145=EDGE_LOOP('',(#824,#825,#826,#827));
#146=EDGE_LOOP('',(#828,#829,#830,#831));
#147=EDGE_LOOP('',(#832,#833,#834,#835));
#148=EDGE_LOOP('',(#836,#837,#838,#839));
#149=EDGE_LOOP('',(#840,#841,#842,#843));
#150=EDGE_LOOP('',(#844,#845,#846,#847));
#151=EDGE_LOOP('',(#848,#849,#850,#851));
#152=EDGE_LOOP('',(#852,#853,#854,#855));
#153=EDGE_LOOP('',(#856,#857,#858,#859));
#154=EDGE_LOOP('',(#860,#861,#862,#863));
#155=EDGE_LOOP('',(#864,#865,#866,#867));
#156=EDGE_LOOP('',(#868,#869,#870,#871));
#157=EDGE_LOOP('',(#872));
#158=EDGE_LOOP('',(#873));
#159=EDGE_LOOP('',(#874));
#160=EDGE_LOOP('',(#875,#876,#877,#878,#879,#880));
#161=EDGE_LOOP('',(#881,#882,#883,#884));
#162=EDGE_LOOP('',(#885));
#163=EDGE_LOOP('',(#886));
#164=EDGE_LOOP('',(#887));
#165=EDGE_LOOP('',(#888,#889,#890,#891));
#166=EDGE_LOOP('',(#892,#893,#894,#895));
#167=EDGE_LOOP('',(#896,#897,#898,#899));
#168=EDGE_LOOP('',(#900,#901,#902,#903));
#169=EDGE_LOOP('',(#904,#905,#906,#907));
#170=EDGE_LOOP('',(#908,#909,#910,#911,#912,#913));
#171=EDGE_LOOP('',(#914,#915,#916,#917));
#172=EDGE_LOOP('',(#918,#919,#920,#921,#922,#923));
#173=EDGE_LOOP('',(#924,#925,#926,#927));
#174=EDGE_LOOP('',(#928,#929,#930,#931));
#175=EDGE_LOOP('',(#932,#933,#934,#935));
#176=EDGE_LOOP('',(#936,#937,#938,#939));
#177=EDGE_LOOP('',(#940,#941,#942,#943));
#178=EDGE_LOOP('',(#944,#945,#946,#947));
#179=EDGE_LOOP('',(#948,#949,#950,#951,#952));
#180=EDGE_LOOP('',(#953,#954,#955,#956,#957,#958));
#181=EDGE_LOOP('',(#959,#960,#961,#962));
#182=EDGE_LOOP('',(#963));
#183=EDGE_LOOP('',(#964,#965,#966,#967));
#184=EDGE_LOOP('',(#968));
#185=EDGE_LOOP('',(#969));
#186=EDGE_LOOP('',(#970,#971,#972,#973,#974,#975));
#187=EDGE_LOOP('',(#976,#977,#978,#979,#980));
#188=EDGE_LOOP('',(#981,#982,#983,#984));
#189=EDGE_LOOP('',(#985,#986,#987,#988,#989));
#190=EDGE_LOOP('',(#990,#991,#992,#993,#994,#995));
#191=EDGE_LOOP('',(#996));
#192=EDGE_LOOP('',(#997,#998,#999,#1000));
#193=EDGE_LOOP('',(#1001));
#194=EDGE_LOOP('',(#1002));
#195=EDGE_LOOP('',(#1003,#1004,#1005,#1006,#1007));
#196=EDGE_LOOP('',(#1008,#1009,#1010,#1011));
#197=EDGE_LOOP('',(#1012,#1013,#1014,#1015));
#198=EDGE_LOOP('',(#1016,#1017,#1018,#1019));
#199=EDGE_LOOP('',(#1020,#1021,#1022,#1023));
#200=EDGE_LOOP('',(#1024,#1025,#1026,#1027));
#201=EDGE_LOOP('',(#1028,#1029,#1030,#1031));
#202=EDGE_LOOP('',(#1032,#1033,#1034,#1035));
#203=EDGE_LOOP('',(#1036,#1037,#1038,#1039));
#204=EDGE_LOOP('',(#1040,#1041,#1042,#1043));
#205=EDGE_LOOP('',(#1044,#1045,#1046,#1047));
#206=EDGE_LOOP('',(#1048,#1049,#1050,#1051));
#207=EDGE_LOOP('',(#1052,#1053,#1054,#1055));
#208=EDGE_LOOP('',(#1056,#1057,#1058,#1059));
#209=EDGE_LOOP('',(#1060,#1061,#1062,#1063));
#210=EDGE_LOOP('',(#1064,#1065,#1066,#1067));
#211=EDGE_LOOP('',(#1068,#1069,#1070,#1071));
#212=EDGE_LOOP('',(#1072,#1073,#1074,#1075));
#213=EDGE_LOOP('',(#1076,#1077,#1078,#1079));
#214=EDGE_LOOP('',(#1080,#1081,#1082,#1083));
#215=EDGE_LOOP('',(#1084,#1085,#1086,#1087,#1088,#1089,#1090,#1091));
#216=EDGE_LOOP('',(#1092,#1093,#1094,#1095));
#217=EDGE_LOOP('',(#1096,#1097,#1098,#1099));
#218=EDGE_LOOP('',(#1100,#1101,#1102,#1103,#1104,#1105,#1106,#1107));
#219=EDGE_LOOP('',(#1108,#1109,#1110,#1111));
#220=EDGE_LOOP('',(#1112,#1113,#1114,#1115));
#221=LINE('',#1654,#366);
#222=LINE('',#1656,#367);
#223=LINE('',#1658,#368);
#224=LINE('',#1659,#369);
#225=LINE('',#1662,#370);
#226=LINE('',#1664,#371);
#227=LINE('',#1665,#372);
#228=LINE('',#1668,#373);
#229=LINE('',#1670,#374);
#230=LINE('',#1672,#375);
#231=LINE('',#1673,#376);
#232=LINE('',#1676,#377);
#233=LINE('',#1678,#378);
#234=LINE('',#1680,#379);
#235=LINE('',#1681,#380);
#236=LINE('',#1684,#381);
#237=LINE('',#1685,#382);
#238=LINE('',#1689,#383);
#239=LINE('',#1690,#384);
#240=LINE('',#1691,#385);
#241=LINE('',#1694,#386);
#242=LINE('',#1695,#387);
#243=LINE('',#1698,#388);
#244=LINE('',#1699,#389);
#245=LINE('',#1701,#390);
#246=LINE('',#1704,#391);
#247=LINE('',#1705,#392);
#248=LINE('',#1708,#393);
#249=LINE('',#1709,#394);
#250=LINE('',#1711,#395);
#251=LINE('',#1715,#396);
#252=LINE('',#1717,#397);
#253=LINE('',#1719,#398);
#254=LINE('',#1720,#399);
#255=LINE('',#1723,#400);
#256=LINE('',#1725,#401);
#257=LINE('',#1726,#402);
#258=LINE('',#1729,#403);
#259=LINE('',#1731,#404);
#260=LINE('',#1732,#405);
#261=LINE('',#1734,#406);
#262=LINE('',#1735,#407);
#263=LINE('',#1740,#408);
#264=LINE('',#1746,#409);
#265=LINE('',#1752,#410);
#266=LINE('',#1759,#411);
#267=LINE('',#1761,#412);
#268=LINE('',#1763,#413);
#269=LINE('',#1764,#414);
#270=LINE('',#1767,#415);
#271=LINE('',#1769,#416);
#272=LINE('',#1770,#417);
#273=LINE('',#1773,#418);
#274=LINE('',#1775,#419);
#275=LINE('',#1776,#420);
#276=LINE('',#1779,#421);
#277=LINE('',#1781,#422);
#278=LINE('',#1782,#423);
#279=LINE('',#1785,#424);
#280=LINE('',#1787,#425);
#281=LINE('',#1788,#426);
#282=LINE('',#1790,#427);
#283=LINE('',#1793,#428);
#284=LINE('',#1795,#429);
#285=LINE('',#1797,#430);
#286=LINE('',#1798,#431);
#287=LINE('',#1800,#432);
#288=LINE('',#1803,#433);
#289=LINE('',#1805,#434);
#290=LINE('',#1807,#435);
#291=LINE('',#1808,#436);
#292=LINE('',#1810,#437);
#293=LINE('',#1811,#438);
#294=LINE('',#1813,#439);
#295=LINE('',#1815,#440);
#296=LINE('',#1821,#441);
#297=LINE('',#1823,#442);
#298=LINE('',#1825,#443);
#299=LINE('',#1827,#444);
#300=LINE('',#1828,#445);
#301=LINE('',#1831,#446);
#302=LINE('',#1833,#447);
#303=LINE('',#1835,#448);
#304=LINE('',#1837,#449);
#305=LINE('',#1838,#450);
#306=LINE('',#1841,#451);
#307=LINE('',#1842,#452);
#308=LINE('',#1847,#453);
#309=LINE('',#1849,#454);
#310=LINE('',#1851,#455);
#311=LINE('',#1852,#456);
#312=LINE('',#1859,#457);
#313=LINE('',#1861,#458);
#314=LINE('',#1863,#459);
#315=LINE('',#1864,#460);
#316=LINE('',#1867,#461);
#317=LINE('',#1868,#462);
#318=LINE('',#1871,#463);
#319=LINE('',#1873,#464);
#320=LINE('',#1874,#465);
#321=LINE('',#1877,#466);
#322=LINE('',#1878,#467);
#323=LINE('',#1880,#468);
#324=LINE('',#1882,#469);
#325=LINE('',#1883,#470);
#326=LINE('',#1888,#471);
#327=LINE('',#1890,#472);
#328=LINE('',#1892,#473);
#329=LINE('',#1893,#474);
#330=LINE('',#1899,#475);
#331=LINE('',#1901,#476);
#332=LINE('',#1903,#477);
#333=LINE('',#1905,#478);
#334=LINE('',#1906,#479);
#335=LINE('',#1908,#480);
#336=LINE('',#1910,#481);
#337=LINE('',#1913,#482);
#338=LINE('',#1921,#483);
#339=LINE('',#1924,#484);
#340=LINE('',#1927,#485);
#341=LINE('',#1929,#486);
#342=LINE('',#1930,#487);
#343=LINE('',#1935,#488);
#344=LINE('',#1939,#489);
#345=LINE('',#1941,#490);
#346=LINE('',#1942,#491);
#347=LINE('',#1948,#492);
#348=LINE('',#1951,#493);
#349=LINE('',#1953,#494);
#350=LINE('',#1954,#495);
#351=LINE('',#1959,#496);
#352=LINE('',#1962,#497);
#353=LINE('',#1963,#498);
#354=LINE('',#1967,#499);
#355=LINE('',#1969,#500);
#356=LINE('',#1971,#501);
#357=LINE('',#1972,#502);
#358=LINE('',#1975,#503);
#359=LINE('',#1977,#504);
#360=LINE('',#1978,#505);
#361=LINE('',#1981,#506);
#362=LINE('',#1983,#507);
#363=LINE('',#1984,#508);
#364=LINE('',#1986,#509);
#365=LINE('',#1987,#510);
#366=VECTOR('',#1339,10.);
#367=VECTOR('',#1340,10.);
#368=VECTOR('',#1341,10.);
#369=VECTOR('',#1342,10.);
#370=VECTOR('',#1345,10.);
#371=VECTOR('',#1346,10.);
#372=VECTOR('',#1347,10.);
#373=VECTOR('',#1350,10.);
#374=VECTOR('',#1351,10.);
#375=VECTOR('',#1352,10.);
#376=VECTOR('',#1353,10.);
#377=VECTOR('',#1354,10.);
#378=VECTOR('',#1355,10.);
#379=VECTOR('',#1356,10.);
#380=VECTOR('',#1357,10.);
#381=VECTOR('',#1360,10.);
#382=VECTOR('',#1361,10.);
#383=VECTOR('',#1364,10.);
#384=VECTOR('',#1365,10.);
#385=VECTOR('',#1366,10.);
#386=VECTOR('',#1369,10.);
#387=VECTOR('',#1370,10.);
#388=VECTOR('',#1373,10.);
#389=VECTOR('',#1374,10.);
#390=VECTOR('',#1377,10.);
#391=VECTOR('',#1380,10.);
#392=VECTOR('',#1381,10.);
#393=VECTOR('',#1384,10.);
#394=VECTOR('',#1385,10.);
#395=VECTOR('',#1388,10.);
#396=VECTOR('',#1391,10.);
#397=VECTOR('',#1392,10.);
#398=VECTOR('',#1393,10.);
#399=VECTOR('',#1394,10.);
#400=VECTOR('',#1397,10.);
#401=VECTOR('',#1398,10.);
#402=VECTOR('',#1399,10.);
#403=VECTOR('',#1402,10.);
#404=VECTOR('',#1403,10.);
#405=VECTOR('',#1404,10.);
#406=VECTOR('',#1407,10.);
#407=VECTOR('',#1408,10.);
#408=VECTOR('',#1413,1.09999997541308);
#409=VECTOR('',#1420,1.09999997541308);
#410=VECTOR('',#1427,1.10399165683589);
#411=VECTOR('',#1436,10.);
#412=VECTOR('',#1437,10.);
#413=VECTOR('',#1438,10.);
#414=VECTOR('',#1439,10.);
#415=VECTOR('',#1442,10.);
#416=VECTOR('',#1443,10.);
#417=VECTOR('',#1444,10.);
#418=VECTOR('',#1447,10.);
#419=VECTOR('',#1448,10.);
#420=VECTOR('',#1449,10.);
#421=VECTOR('',#1452,10.);
#422=VECTOR('',#1453,10.);
#423=VECTOR('',#1454,10.);
#424=VECTOR('',#1457,10.);
#425=VECTOR('',#1458,10.);
#426=VECTOR('',#1459,10.);
#427=VECTOR('',#1462,10.);
#428=VECTOR('',#1463,10.);
#429=VECTOR('',#1464,10.);
#430=VECTOR('',#1465,10.);
#431=VECTOR('',#1466,10.);
#432=VECTOR('',#1469,10.);
#433=VECTOR('',#1470,10.);
#434=VECTOR('',#1471,10.);
#435=VECTOR('',#1472,10.);
#436=VECTOR('',#1473,10.);
#437=VECTOR('',#1476,10.);
#438=VECTOR('',#1477,10.);
#439=VECTOR('',#1480,10.);
#440=VECTOR('',#1483,10.);
#441=VECTOR('',#1490,10.);
#442=VECTOR('',#1491,10.);
#443=VECTOR('',#1492,10.);
#444=VECTOR('',#1493,10.);
#445=VECTOR('',#1494,10.);
#446=VECTOR('',#1497,10.);
#447=VECTOR('',#1498,10.);
#448=VECTOR('',#1499,10.);
#449=VECTOR('',#1500,10.);
#450=VECTOR('',#1501,10.);
#451=VECTOR('',#1504,10.);
#452=VECTOR('',#1505,10.);
#453=VECTOR('',#1508,10.);
#454=VECTOR('',#1509,10.);
#455=VECTOR('',#1510,10.);
#456=VECTOR('',#1511,10.);
#457=VECTOR('',#1518,10.);
#458=VECTOR('',#1519,10.);
#459=VECTOR('',#1520,10.);
#460=VECTOR('',#1521,10.);
#461=VECTOR('',#1524,10.);
#462=VECTOR('',#1525,10.);
#463=VECTOR('',#1528,10.);
#464=VECTOR('',#1529,10.);
#465=VECTOR('',#1530,10.);
#466=VECTOR('',#1533,10.);
#467=VECTOR('',#1534,10.);
#468=VECTOR('',#1537,10.);
#469=VECTOR('',#1538,10.);
#470=VECTOR('',#1539,10.);
#471=VECTOR('',#1542,10.);
#472=VECTOR('',#1543,10.);
#473=VECTOR('',#1544,10.);
#474=VECTOR('',#1545,10.);
#475=VECTOR('',#1552,10.);
#476=VECTOR('',#1555,1.09999997541308);
#477=VECTOR('',#1558,1.09999997541308);
#478=VECTOR('',#1561,10.);
#479=VECTOR('',#1562,10.);
#480=VECTOR('',#1565,10.);
#481=VECTOR('',#1568,10.);
#482=VECTOR('',#1573,1.10399165683589);
#483=VECTOR('',#1582,10.);
#484=VECTOR('',#1585,10.);
#485=VECTOR('',#1588,10.);
#486=VECTOR('',#1589,10.);
#487=VECTOR('',#1590,10.);
#488=VECTOR('',#1595,10.);
#489=VECTOR('',#1600,10.);
#490=VECTOR('',#1601,10.);
#491=VECTOR('',#1602,10.);
#492=VECTOR('',#1607,10.);
#493=VECTOR('',#1610,10.);
#494=VECTOR('',#1613,10.);
#495=VECTOR('',#1614,10.);
#496=VECTOR('',#1619,10.);
#497=VECTOR('',#1624,10.);
#498=VECTOR('',#1625,10.);
#499=VECTOR('',#1628,10.);
#500=VECTOR('',#1629,10.);
#501=VECTOR('',#1630,10.);
#502=VECTOR('',#1631,10.);
#503=VECTOR('',#1634,10.);
#504=VECTOR('',#1635,10.);
#505=VECTOR('',#1636,10.);
#506=VECTOR('',#1639,10.);
#507=VECTOR('',#1640,10.);
#508=VECTOR('',#1641,10.);
#509=VECTOR('',#1644,10.);
#510=VECTOR('',#1645,10.);
#511=VERTEX_POINT('',#1652);
#512=VERTEX_POINT('',#1653);
#513=VERTEX_POINT('',#1655);
#514=VERTEX_POINT('',#1657);
#515=VERTEX_POINT('',#1661);
#516=VERTEX_POINT('',#1663);
#517=VERTEX_POINT('',#1667);
#518=VERTEX_POINT('',#1669);
#519=VERTEX_POINT('',#1671);
#520=VERTEX_POINT('',#1674);
#521=VERTEX_POINT('',#1675);
#522=VERTEX_POINT('',#1677);
#523=VERTEX_POINT('',#1679);
#524=VERTEX_POINT('',#1683);
#525=VERTEX_POINT('',#1687);
#526=VERTEX_POINT('',#1688);
#527=VERTEX_POINT('',#1693);
#528=VERTEX_POINT('',#1697);
#529=VERTEX_POINT('',#1703);
#530=VERTEX_POINT('',#1707);
#531=VERTEX_POINT('',#1713);
#532=VERTEX_POINT('',#1714);
#533=VERTEX_POINT('',#1716);
#534=VERTEX_POINT('',#1718);
#535=VERTEX_POINT('',#1722);
#536=VERTEX_POINT('',#1724);
#537=VERTEX_POINT('',#1728);
#538=VERTEX_POINT('',#1730);
#539=VERTEX_POINT('',#1737);
#540=VERTEX_POINT('',#1739);
#541=VERTEX_POINT('',#1743);
#542=VERTEX_POINT('',#1745);
#543=VERTEX_POINT('',#1749);
#544=VERTEX_POINT('',#1751);
#545=VERTEX_POINT('',#1757);
#546=VERTEX_POINT('',#1758);
#547=VERTEX_POINT('',#1760);
#548=VERTEX_POINT('',#1762);
#549=VERTEX_POINT('',#1766);
#550=VERTEX_POINT('',#1768);
#551=VERTEX_POINT('',#1772);
#552=VERTEX_POINT('',#1774);
#553=VERTEX_POINT('',#1778);
#554=VERTEX_POINT('',#1780);
#555=VERTEX_POINT('',#1784);
#556=VERTEX_POINT('',#1786);
#557=VERTEX_POINT('',#1791);
#558=VERTEX_POINT('',#1792);
#559=VERTEX_POINT('',#1794);
#560=VERTEX_POINT('',#1796);
#561=VERTEX_POINT('',#1801);
#562=VERTEX_POINT('',#1802);
#563=VERTEX_POINT('',#1804);
#564=VERTEX_POINT('',#1806);
#565=VERTEX_POINT('',#1819);
#566=VERTEX_POINT('',#1820);
#567=VERTEX_POINT('',#1822);
#568=VERTEX_POINT('',#1824);
#569=VERTEX_POINT('',#1826);
#570=VERTEX_POINT('',#1830);
#571=VERTEX_POINT('',#1832);
#572=VERTEX_POINT('',#1834);
#573=VERTEX_POINT('',#1836);
#574=VERTEX_POINT('',#1840);
#575=VERTEX_POINT('',#1843);
#576=VERTEX_POINT('',#1845);
#577=VERTEX_POINT('',#1846);
#578=VERTEX_POINT('',#1848);
#579=VERTEX_POINT('',#1850);
#580=VERTEX_POINT('',#1853);
#581=VERTEX_POINT('',#1855);
#582=VERTEX_POINT('',#1858);
#583=VERTEX_POINT('',#1860);
#584=VERTEX_POINT('',#1862);
#585=VERTEX_POINT('',#1866);
#586=VERTEX_POINT('',#1870);
#587=VERTEX_POINT('',#1872);
#588=VERTEX_POINT('',#1876);
#589=VERTEX_POINT('',#1881);
#590=VERTEX_POINT('',#1884);
#591=VERTEX_POINT('',#1886);
#592=VERTEX_POINT('',#1887);
#593=VERTEX_POINT('',#1889);
#594=VERTEX_POINT('',#1891);
#595=VERTEX_POINT('',#1894);
#596=VERTEX_POINT('',#1896);
#597=VERTEX_POINT('',#1917);
#598=VERTEX_POINT('',#1918);
#599=VERTEX_POINT('',#1920);
#600=VERTEX_POINT('',#1922);
#601=VERTEX_POINT('',#1926);
#602=VERTEX_POINT('',#1928);
#603=VERTEX_POINT('',#1932);
#604=VERTEX_POINT('',#1934);
#605=VERTEX_POINT('',#1938);
#606=VERTEX_POINT('',#1940);
#607=VERTEX_POINT('',#1944);
#608=VERTEX_POINT('',#1945);
#609=VERTEX_POINT('',#1947);
#610=VERTEX_POINT('',#1949);
#611=VERTEX_POINT('',#1956);
#612=VERTEX_POINT('',#1958);
#613=VERTEX_POINT('',#1965);
#614=VERTEX_POINT('',#1966);
#615=VERTEX_POINT('',#1968);
#616=VERTEX_POINT('',#1970);
#617=VERTEX_POINT('',#1974);
#618=VERTEX_POINT('',#1976);
#619=VERTEX_POINT('',#1980);
#620=VERTEX_POINT('',#1982);
#621=EDGE_CURVE('',#511,#512,#221,.T.);
#622=EDGE_CURVE('',#512,#513,#222,.T.);
#623=EDGE_CURVE('',#513,#514,#223,.T.);
#624=EDGE_CURVE('',#514,#511,#224,.T.);
#625=EDGE_CURVE('',#515,#512,#225,.T.);
#626=EDGE_CURVE('',#516,#515,#226,.T.);
#627=EDGE_CURVE('',#513,#516,#227,.T.);
#628=EDGE_CURVE('',#511,#517,#228,.T.);
#629=EDGE_CURVE('',#517,#518,#229,.F.);
#630=EDGE_CURVE('',#518,#519,#230,.T.);
#631=EDGE_CURVE('',#515,#519,#231,.T.);
#632=EDGE_CURVE('',#520,#521,#232,.T.);
#633=EDGE_CURVE('',#521,#522,#233,.T.);
#634=EDGE_CURVE('',#522,#523,#234,.T.);
#635=EDGE_CURVE('',#523,#520,#235,.T.);
#636=EDGE_CURVE('',#519,#524,#236,.T.);
#637=EDGE_CURVE('',#524,#516,#237,.T.);
#638=EDGE_CURVE('',#525,#526,#238,.T.);
#639=EDGE_CURVE('',#526,#520,#239,.T.);
#640=EDGE_CURVE('',#525,#523,#240,.T.);
#641=EDGE_CURVE('',#527,#525,#241,.T.);
#642=EDGE_CURVE('',#527,#522,#242,.T.);
#643=EDGE_CURVE('',#528,#527,#243,.T.);
#644=EDGE_CURVE('',#528,#521,#244,.T.);
#645=EDGE_CURVE('',#526,#528,#245,.T.);
#646=EDGE_CURVE('',#529,#518,#246,.T.);
#647=EDGE_CURVE('',#529,#524,#247,.T.);
#648=EDGE_CURVE('',#530,#517,#248,.F.);
#649=EDGE_CURVE('',#530,#529,#249,.T.);
#650=EDGE_CURVE('',#514,#530,#250,.T.);
#651=EDGE_CURVE('',#531,#532,#251,.T.);
#652=EDGE_CURVE('',#533,#531,#252,.T.);
#653=EDGE_CURVE('',#534,#533,#253,.T.);
#654=EDGE_CURVE('',#534,#532,#254,.T.);
#655=EDGE_CURVE('',#532,#535,#255,.T.);
#656=EDGE_CURVE('',#536,#534,#256,.T.);
#657=EDGE_CURVE('',#536,#535,#257,.T.);
#658=EDGE_CURVE('',#535,#537,#258,.T.);
#659=EDGE_CURVE('',#538,#536,#259,.T.);
#660=EDGE_CURVE('',#538,#537,#260,.T.);
#661=EDGE_CURVE('',#537,#531,#261,.T.);
#662=EDGE_CURVE('',#533,#538,#262,.T.);
#663=EDGE_CURVE('',#539,#539,#28,.T.);
#664=EDGE_CURVE('',#539,#540,#263,.T.);
#665=EDGE_CURVE('',#540,#540,#29,.T.);
#666=EDGE_CURVE('',#541,#541,#30,.T.);
#667=EDGE_CURVE('',#541,#542,#264,.T.);
#668=EDGE_CURVE('',#542,#542,#31,.T.);
#669=EDGE_CURVE('',#543,#543,#32,.T.);
#670=EDGE_CURVE('',#543,#544,#265,.T.);
#671=EDGE_CURVE('',#544,#544,#33,.T.);
#672=EDGE_CURVE('',#545,#546,#266,.T.);
#673=EDGE_CURVE('',#546,#547,#267,.T.);
#674=EDGE_CURVE('',#547,#548,#268,.T.);
#675=EDGE_CURVE('',#548,#545,#269,.T.);
#676=EDGE_CURVE('',#548,#549,#270,.T.);
#677=EDGE_CURVE('',#549,#550,#271,.T.);
#678=EDGE_CURVE('',#550,#545,#272,.T.);
#679=EDGE_CURVE('',#549,#551,#273,.T.);
#680=EDGE_CURVE('',#551,#552,#274,.T.);
#681=EDGE_CURVE('',#552,#550,#275,.T.);
#682=EDGE_CURVE('',#553,#552,#276,.T.);
#683=EDGE_CURVE('',#551,#554,#277,.T.);
#684=EDGE_CURVE('',#554,#553,#278,.T.);
#685=EDGE_CURVE('',#554,#555,#279,.T.);
#686=EDGE_CURVE('',#555,#556,#280,.T.);
#687=EDGE_CURVE('',#556,#553,#281,.T.);
#688=EDGE_CURVE('',#547,#555,#282,.F.);
#689=EDGE_CURVE('',#557,#558,#283,.T.);
#690=EDGE_CURVE('',#558,#559,#284,.T.);
#691=EDGE_CURVE('',#559,#560,#285,.T.);
#692=EDGE_CURVE('',#560,#557,#286,.T.);
#693=EDGE_CURVE('',#546,#556,#287,.F.);
#694=EDGE_CURVE('',#561,#562,#288,.T.);
#695=EDGE_CURVE('',#563,#561,#289,.T.);
#696=EDGE_CURVE('',#564,#563,#290,.T.);
#697=EDGE_CURVE('',#562,#564,#291,.T.);
#698=EDGE_CURVE('',#561,#557,#292,.T.);
#699=EDGE_CURVE('',#563,#560,#293,.T.);
#700=EDGE_CURVE('',#564,#559,#294,.T.);
#701=EDGE_CURVE('',#562,#558,#295,.T.);
#702=EDGE_CURVE('',#565,#566,#296,.T.);
#703=EDGE_CURVE('',#566,#567,#297,.T.);
#704=EDGE_CURVE('',#567,#568,#298,.T.);
#705=EDGE_CURVE('',#568,#569,#299,.T.);
#706=EDGE_CURVE('',#569,#565,#300,.T.);
#707=EDGE_CURVE('',#567,#570,#301,.T.);
#708=EDGE_CURVE('',#571,#570,#302,.T.);
#709=EDGE_CURVE('',#571,#572,#303,.T.);
#710=EDGE_CURVE('',#572,#573,#304,.T.);
#711=EDGE_CURVE('',#573,#568,#305,.T.);
#712=EDGE_CURVE('',#566,#574,#306,.T.);
#713=EDGE_CURVE('',#570,#574,#307,.T.);
#714=EDGE_CURVE('',#575,#575,#13,.T.);
#715=EDGE_CURVE('',#576,#577,#308,.T.);
#716=EDGE_CURVE('',#577,#578,#309,.T.);
#717=EDGE_CURVE('',#578,#579,#310,.T.);
#718=EDGE_CURVE('',#579,#576,#311,.T.);
#719=EDGE_CURVE('',#580,#580,#14,.T.);
#720=EDGE_CURVE('',#581,#581,#15,.T.);
#721=EDGE_CURVE('',#582,#565,#312,.F.);
#722=EDGE_CURVE('',#583,#582,#313,.T.);
#723=EDGE_CURVE('',#583,#584,#314,.T.);
#724=EDGE_CURVE('',#574,#584,#315,.T.);
#725=EDGE_CURVE('',#584,#585,#316,.T.);
#726=EDGE_CURVE('',#585,#571,#317,.T.);
#727=EDGE_CURVE('',#586,#572,#318,.T.);
#728=EDGE_CURVE('',#587,#586,#319,.T.);
#729=EDGE_CURVE('',#573,#587,#320,.T.);
#730=EDGE_CURVE('',#585,#588,#321,.T.);
#731=EDGE_CURVE('',#588,#586,#322,.T.);
#732=EDGE_CURVE('',#588,#583,#323,.T.);
#733=EDGE_CURVE('',#582,#589,#324,.T.);
#734=EDGE_CURVE('',#587,#589,#325,.T.);
#735=EDGE_CURVE('',#590,#590,#34,.T.);
#736=EDGE_CURVE('',#591,#592,#326,.T.);
#737=EDGE_CURVE('',#593,#591,#327,.T.);
#738=EDGE_CURVE('',#594,#593,#328,.T.);
#739=EDGE_CURVE('',#592,#594,#329,.T.);
#740=EDGE_CURVE('',#595,#595,#35,.T.);
#741=EDGE_CURVE('',#596,#596,#36,.T.);
#742=EDGE_CURVE('',#589,#569,#330,.T.);
#743=EDGE_CURVE('',#581,#596,#331,.T.);
#744=EDGE_CURVE('',#580,#595,#332,.T.);
#745=EDGE_CURVE('',#591,#576,#333,.T.);
#746=EDGE_CURVE('',#593,#579,#334,.T.);
#747=EDGE_CURVE('',#594,#578,#335,.T.);
#748=EDGE_CURVE('',#592,#577,#336,.T.);
#749=EDGE_CURVE('',#575,#590,#337,.T.);
#750=EDGE_CURVE('',#597,#598,#37,.T.);
#751=EDGE_CURVE('',#598,#599,#338,.T.);
#752=EDGE_CURVE('',#599,#600,#16,.T.);
#753=EDGE_CURVE('',#600,#597,#339,.T.);
#754=EDGE_CURVE('',#601,#598,#340,.T.);
#755=EDGE_CURVE('',#602,#601,#341,.T.);
#756=EDGE_CURVE('',#599,#602,#342,.T.);
#757=EDGE_CURVE('',#601,#603,#38,.T.);
#758=EDGE_CURVE('',#603,#604,#343,.T.);
#759=EDGE_CURVE('',#604,#602,#17,.T.);
#760=EDGE_CURVE('',#605,#603,#344,.T.);
#761=EDGE_CURVE('',#606,#605,#345,.T.);
#762=EDGE_CURVE('',#604,#606,#346,.T.);
#763=EDGE_CURVE('',#607,#608,#39,.T.);
#764=EDGE_CURVE('',#608,#609,#347,.T.);
#765=EDGE_CURVE('',#609,#610,#18,.T.);
#766=EDGE_CURVE('',#610,#607,#348,.T.);
#767=EDGE_CURVE('',#609,#600,#349,.T.);
#768=EDGE_CURVE('',#597,#608,#350,.T.);
#769=EDGE_CURVE('',#605,#611,#40,.T.);
#770=EDGE_CURVE('',#611,#612,#351,.T.);
#771=EDGE_CURVE('',#612,#606,#19,.T.);
#772=EDGE_CURVE('',#612,#610,#352,.T.);
#773=EDGE_CURVE('',#607,#611,#353,.T.);
#774=EDGE_CURVE('',#613,#614,#354,.T.);
#775=EDGE_CURVE('',#613,#615,#355,.T.);
#776=EDGE_CURVE('',#616,#615,#356,.T.);
#777=EDGE_CURVE('',#614,#616,#357,.T.);
#778=EDGE_CURVE('',#614,#617,#358,.T.);
#779=EDGE_CURVE('',#618,#616,#359,.T.);
#780=EDGE_CURVE('',#617,#618,#360,.T.);
#781=EDGE_CURVE('',#619,#617,#361,.T.);
#782=EDGE_CURVE('',#620,#618,#362,.T.);
#783=EDGE_CURVE('',#619,#620,#363,.T.);
#784=EDGE_CURVE('',#613,#619,#364,.T.);
#785=EDGE_CURVE('',#615,#620,#365,.T.);
#786=ORIENTED_EDGE('',*,*,#621,.T.);
#787=ORIENTED_EDGE('',*,*,#622,.T.);
#788=ORIENTED_EDGE('',*,*,#623,.T.);
#789=ORIENTED_EDGE('',*,*,#624,.T.);
#790=ORIENTED_EDGE('',*,*,#622,.F.);
#791=ORIENTED_EDGE('',*,*,#625,.F.);
#792=ORIENTED_EDGE('',*,*,#626,.F.);
#793=ORIENTED_EDGE('',*,*,#627,.F.);
#794=ORIENTED_EDGE('',*,*,#621,.F.);
#795=ORIENTED_EDGE('',*,*,#628,.T.);
#796=ORIENTED_EDGE('',*,*,#629,.T.);
#797=ORIENTED_EDGE('',*,*,#630,.T.);
#798=ORIENTED_EDGE('',*,*,#631,.F.);
#799=ORIENTED_EDGE('',*,*,#625,.T.);
#800=ORIENTED_EDGE('',*,*,#632,.T.);
#801=ORIENTED_EDGE('',*,*,#633,.T.);
#802=ORIENTED_EDGE('',*,*,#634,.T.);
#803=ORIENTED_EDGE('',*,*,#635,.T.);
#804=ORIENTED_EDGE('',*,*,#631,.T.);
#805=ORIENTED_EDGE('',*,*,#636,.T.);
#806=ORIENTED_EDGE('',*,*,#637,.T.);
#807=ORIENTED_EDGE('',*,*,#626,.T.);
#808=ORIENTED_EDGE('',*,*,#638,.T.);
#809=ORIENTED_EDGE('',*,*,#639,.T.);
#810=ORIENTED_EDGE('',*,*,#635,.F.);
#811=ORIENTED_EDGE('',*,*,#640,.F.);
#812=ORIENTED_EDGE('',*,*,#641,.T.);
#813=ORIENTED_EDGE('',*,*,#640,.T.);
#814=ORIENTED_EDGE('',*,*,#634,.F.);
#815=ORIENTED_EDGE('',*,*,#642,.F.);
#816=ORIENTED_EDGE('',*,*,#643,.T.);
#817=ORIENTED_EDGE('',*,*,#642,.T.);
#818=ORIENTED_EDGE('',*,*,#633,.F.);
#819=ORIENTED_EDGE('',*,*,#644,.F.);
#820=ORIENTED_EDGE('',*,*,#645,.T.);
#821=ORIENTED_EDGE('',*,*,#644,.T.);
#822=ORIENTED_EDGE('',*,*,#632,.F.);
#823=ORIENTED_EDGE('',*,*,#639,.F.);
#824=ORIENTED_EDGE('',*,*,#636,.F.);
#825=ORIENTED_EDGE('',*,*,#630,.F.);
#826=ORIENTED_EDGE('',*,*,#646,.F.);
#827=ORIENTED_EDGE('',*,*,#647,.T.);
#828=ORIENTED_EDGE('',*,*,#646,.T.);
#829=ORIENTED_EDGE('',*,*,#629,.F.);
#830=ORIENTED_EDGE('',*,*,#648,.F.);
#831=ORIENTED_EDGE('',*,*,#649,.T.);
#832=ORIENTED_EDGE('',*,*,#624,.F.);
#833=ORIENTED_EDGE('',*,*,#650,.T.);
#834=ORIENTED_EDGE('',*,*,#648,.T.);
#835=ORIENTED_EDGE('',*,*,#628,.F.);
#836=ORIENTED_EDGE('',*,*,#651,.F.);
#837=ORIENTED_EDGE('',*,*,#652,.F.);
#838=ORIENTED_EDGE('',*,*,#653,.F.);
#839=ORIENTED_EDGE('',*,*,#654,.T.);
#840=ORIENTED_EDGE('',*,*,#655,.F.);
#841=ORIENTED_EDGE('',*,*,#654,.F.);
#842=ORIENTED_EDGE('',*,*,#656,.F.);
#843=ORIENTED_EDGE('',*,*,#657,.T.);
#844=ORIENTED_EDGE('',*,*,#658,.F.);
#845=ORIENTED_EDGE('',*,*,#657,.F.);
#846=ORIENTED_EDGE('',*,*,#659,.F.);
#847=ORIENTED_EDGE('',*,*,#660,.T.);
#848=ORIENTED_EDGE('',*,*,#661,.F.);
#849=ORIENTED_EDGE('',*,*,#660,.F.);
#850=ORIENTED_EDGE('',*,*,#662,.F.);
#851=ORIENTED_EDGE('',*,*,#652,.T.);
#852=ORIENTED_EDGE('',*,*,#663,.F.);
#853=ORIENTED_EDGE('',*,*,#664,.T.);
#854=ORIENTED_EDGE('',*,*,#665,.F.);
#855=ORIENTED_EDGE('',*,*,#664,.F.);
#856=ORIENTED_EDGE('',*,*,#666,.F.);
#857=ORIENTED_EDGE('',*,*,#667,.T.);
#858=ORIENTED_EDGE('',*,*,#668,.F.);
#859=ORIENTED_EDGE('',*,*,#667,.F.);
#860=ORIENTED_EDGE('',*,*,#669,.F.);
#861=ORIENTED_EDGE('',*,*,#670,.T.);
#862=ORIENTED_EDGE('',*,*,#671,.F.);
#863=ORIENTED_EDGE('',*,*,#670,.F.);
#864=ORIENTED_EDGE('',*,*,#641,.F.);
#865=ORIENTED_EDGE('',*,*,#643,.F.);
#866=ORIENTED_EDGE('',*,*,#645,.F.);
#867=ORIENTED_EDGE('',*,*,#638,.F.);
#868=ORIENTED_EDGE('',*,*,#658,.T.);
#869=ORIENTED_EDGE('',*,*,#661,.T.);
#870=ORIENTED_EDGE('',*,*,#651,.T.);
#871=ORIENTED_EDGE('',*,*,#655,.T.);
#872=ORIENTED_EDGE('',*,*,#665,.T.);
#873=ORIENTED_EDGE('',*,*,#668,.T.);
#874=ORIENTED_EDGE('',*,*,#671,.T.);
#875=ORIENTED_EDGE('',*,*,#623,.F.);
#876=ORIENTED_EDGE('',*,*,#627,.T.);
#877=ORIENTED_EDGE('',*,*,#637,.F.);
#878=ORIENTED_EDGE('',*,*,#647,.F.);
#879=ORIENTED_EDGE('',*,*,#649,.F.);
#880=ORIENTED_EDGE('',*,*,#650,.F.);
#881=ORIENTED_EDGE('',*,*,#659,.T.);
#882=ORIENTED_EDGE('',*,*,#656,.T.);
#883=ORIENTED_EDGE('',*,*,#653,.T.);
#884=ORIENTED_EDGE('',*,*,#662,.T.);
#885=ORIENTED_EDGE('',*,*,#663,.T.);
#886=ORIENTED_EDGE('',*,*,#666,.T.);
#887=ORIENTED_EDGE('',*,*,#669,.T.);
#888=ORIENTED_EDGE('',*,*,#672,.T.);
#889=ORIENTED_EDGE('',*,*,#673,.T.);
#890=ORIENTED_EDGE('',*,*,#674,.T.);
#891=ORIENTED_EDGE('',*,*,#675,.T.);
#892=ORIENTED_EDGE('',*,*,#676,.T.);
#893=ORIENTED_EDGE('',*,*,#677,.T.);
#894=ORIENTED_EDGE('',*,*,#678,.T.);
#895=ORIENTED_EDGE('',*,*,#675,.F.);
#896=ORIENTED_EDGE('',*,*,#679,.T.);
#897=ORIENTED_EDGE('',*,*,#680,.T.);
#898=ORIENTED_EDGE('',*,*,#681,.T.);
#899=ORIENTED_EDGE('',*,*,#677,.F.);
#900=ORIENTED_EDGE('',*,*,#682,.T.);
#901=ORIENTED_EDGE('',*,*,#680,.F.);
#902=ORIENTED_EDGE('',*,*,#683,.T.);
#903=ORIENTED_EDGE('',*,*,#684,.T.);
#904=ORIENTED_EDGE('',*,*,#685,.T.);
#905=ORIENTED_EDGE('',*,*,#686,.T.);
#906=ORIENTED_EDGE('',*,*,#687,.T.);
#907=ORIENTED_EDGE('',*,*,#684,.F.);
#908=ORIENTED_EDGE('',*,*,#685,.F.);
#909=ORIENTED_EDGE('',*,*,#683,.F.);
#910=ORIENTED_EDGE('',*,*,#679,.F.);
#911=ORIENTED_EDGE('',*,*,#676,.F.);
#912=ORIENTED_EDGE('',*,*,#674,.F.);
#913=ORIENTED_EDGE('',*,*,#688,.T.);
#914=ORIENTED_EDGE('',*,*,#689,.T.);
#915=ORIENTED_EDGE('',*,*,#690,.T.);
#916=ORIENTED_EDGE('',*,*,#691,.T.);
#917=ORIENTED_EDGE('',*,*,#692,.T.);
#918=ORIENTED_EDGE('',*,*,#678,.F.);
#919=ORIENTED_EDGE('',*,*,#681,.F.);
#920=ORIENTED_EDGE('',*,*,#682,.F.);
#921=ORIENTED_EDGE('',*,*,#687,.F.);
#922=ORIENTED_EDGE('',*,*,#693,.F.);
#923=ORIENTED_EDGE('',*,*,#672,.F.);
#924=ORIENTED_EDGE('',*,*,#694,.F.);
#925=ORIENTED_EDGE('',*,*,#695,.F.);
#926=ORIENTED_EDGE('',*,*,#696,.F.);
#927=ORIENTED_EDGE('',*,*,#697,.F.);
#928=ORIENTED_EDGE('',*,*,#695,.T.);
#929=ORIENTED_EDGE('',*,*,#698,.T.);
#930=ORIENTED_EDGE('',*,*,#692,.F.);
#931=ORIENTED_EDGE('',*,*,#699,.F.);
#932=ORIENTED_EDGE('',*,*,#696,.T.);
#933=ORIENTED_EDGE('',*,*,#699,.T.);
#934=ORIENTED_EDGE('',*,*,#691,.F.);
#935=ORIENTED_EDGE('',*,*,#700,.F.);
#936=ORIENTED_EDGE('',*,*,#697,.T.);
#937=ORIENTED_EDGE('',*,*,#700,.T.);
#938=ORIENTED_EDGE('',*,*,#690,.F.);
#939=ORIENTED_EDGE('',*,*,#701,.F.);
#940=ORIENTED_EDGE('',*,*,#694,.T.);
#941=ORIENTED_EDGE('',*,*,#701,.T.);
#942=ORIENTED_EDGE('',*,*,#689,.F.);
#943=ORIENTED_EDGE('',*,*,#698,.F.);
#944=ORIENTED_EDGE('',*,*,#686,.F.);
#945=ORIENTED_EDGE('',*,*,#688,.F.);
#946=ORIENTED_EDGE('',*,*,#673,.F.);
#947=ORIENTED_EDGE('',*,*,#693,.T.);
#948=ORIENTED_EDGE('',*,*,#702,.T.);
#949=ORIENTED_EDGE('',*,*,#703,.T.);
#950=ORIENTED_EDGE('',*,*,#704,.T.);
#951=ORIENTED_EDGE('',*,*,#705,.T.);
#952=ORIENTED_EDGE('',*,*,#706,.T.);
#953=ORIENTED_EDGE('',*,*,#704,.F.);
#954=ORIENTED_EDGE('',*,*,#707,.T.);
#955=ORIENTED_EDGE('',*,*,#708,.F.);
#956=ORIENTED_EDGE('',*,*,#709,.T.);
#957=ORIENTED_EDGE('',*,*,#710,.T.);
#958=ORIENTED_EDGE('',*,*,#711,.T.);
#959=ORIENTED_EDGE('',*,*,#703,.F.);
#960=ORIENTED_EDGE('',*,*,#712,.T.);
#961=ORIENTED_EDGE('',*,*,#713,.F.);
#962=ORIENTED_EDGE('',*,*,#707,.F.);
#963=ORIENTED_EDGE('',*,*,#714,.T.);
#964=ORIENTED_EDGE('',*,*,#715,.T.);
#965=ORIENTED_EDGE('',*,*,#716,.T.);
#966=ORIENTED_EDGE('',*,*,#717,.T.);
#967=ORIENTED_EDGE('',*,*,#718,.T.);
#968=ORIENTED_EDGE('',*,*,#719,.T.);
#969=ORIENTED_EDGE('',*,*,#720,.T.);
#970=ORIENTED_EDGE('',*,*,#702,.F.);
#971=ORIENTED_EDGE('',*,*,#721,.F.);
#972=ORIENTED_EDGE('',*,*,#722,.F.);
#973=ORIENTED_EDGE('',*,*,#723,.T.);
#974=ORIENTED_EDGE('',*,*,#724,.F.);
#975=ORIENTED_EDGE('',*,*,#712,.F.);
#976=ORIENTED_EDGE('',*,*,#708,.T.);
#977=ORIENTED_EDGE('',*,*,#713,.T.);
#978=ORIENTED_EDGE('',*,*,#724,.T.);
#979=ORIENTED_EDGE('',*,*,#725,.T.);
#980=ORIENTED_EDGE('',*,*,#726,.T.);
#981=ORIENTED_EDGE('',*,*,#710,.F.);
#982=ORIENTED_EDGE('',*,*,#727,.F.);
#983=ORIENTED_EDGE('',*,*,#728,.F.);
#984=ORIENTED_EDGE('',*,*,#729,.F.);
#985=ORIENTED_EDGE('',*,*,#726,.F.);
#986=ORIENTED_EDGE('',*,*,#730,.T.);
#987=ORIENTED_EDGE('',*,*,#731,.T.);
#988=ORIENTED_EDGE('',*,*,#727,.T.);
#989=ORIENTED_EDGE('',*,*,#709,.F.);
#990=ORIENTED_EDGE('',*,*,#731,.F.);
#991=ORIENTED_EDGE('',*,*,#732,.T.);
#992=ORIENTED_EDGE('',*,*,#722,.T.);
#993=ORIENTED_EDGE('',*,*,#733,.T.);
#994=ORIENTED_EDGE('',*,*,#734,.F.);
#995=ORIENTED_EDGE('',*,*,#728,.T.);
#996=ORIENTED_EDGE('',*,*,#735,.F.);
#997=ORIENTED_EDGE('',*,*,#736,.F.);
#998=ORIENTED_EDGE('',*,*,#737,.F.);
#999=ORIENTED_EDGE('',*,*,#738,.F.);
#1000=ORIENTED_EDGE('',*,*,#739,.F.);
#1001=ORIENTED_EDGE('',*,*,#740,.F.);
#1002=ORIENTED_EDGE('',*,*,#741,.F.);
#1003=ORIENTED_EDGE('',*,*,#705,.F.);
#1004=ORIENTED_EDGE('',*,*,#711,.F.);
#1005=ORIENTED_EDGE('',*,*,#729,.T.);
#1006=ORIENTED_EDGE('',*,*,#734,.T.);
#1007=ORIENTED_EDGE('',*,*,#742,.T.);
#1008=ORIENTED_EDGE('',*,*,#720,.F.);
#1009=ORIENTED_EDGE('',*,*,#743,.T.);
#1010=ORIENTED_EDGE('',*,*,#741,.T.);
#1011=ORIENTED_EDGE('',*,*,#743,.F.);
#1012=ORIENTED_EDGE('',*,*,#719,.F.);
#1013=ORIENTED_EDGE('',*,*,#744,.T.);
#1014=ORIENTED_EDGE('',*,*,#740,.T.);
#1015=ORIENTED_EDGE('',*,*,#744,.F.);
#1016=ORIENTED_EDGE('',*,*,#737,.T.);
#1017=ORIENTED_EDGE('',*,*,#745,.T.);
#1018=ORIENTED_EDGE('',*,*,#718,.F.);
#1019=ORIENTED_EDGE('',*,*,#746,.F.);
#1020=ORIENTED_EDGE('',*,*,#738,.T.);
#1021=ORIENTED_EDGE('',*,*,#746,.T.);
#1022=ORIENTED_EDGE('',*,*,#717,.F.);
#1023=ORIENTED_EDGE('',*,*,#747,.F.);
#1024=ORIENTED_EDGE('',*,*,#739,.T.);
#1025=ORIENTED_EDGE('',*,*,#747,.T.);
#1026=ORIENTED_EDGE('',*,*,#716,.F.);
#1027=ORIENTED_EDGE('',*,*,#748,.F.);
#1028=ORIENTED_EDGE('',*,*,#736,.T.);
#1029=ORIENTED_EDGE('',*,*,#748,.T.);
#1030=ORIENTED_EDGE('',*,*,#715,.F.);
#1031=ORIENTED_EDGE('',*,*,#745,.F.);
#1032=ORIENTED_EDGE('',*,*,#714,.F.);
#1033=ORIENTED_EDGE('',*,*,#749,.T.);
#1034=ORIENTED_EDGE('',*,*,#735,.T.);
#1035=ORIENTED_EDGE('',*,*,#749,.F.);
#1036=ORIENTED_EDGE('',*,*,#706,.F.);
#1037=ORIENTED_EDGE('',*,*,#742,.F.);
#1038=ORIENTED_EDGE('',*,*,#733,.F.);
#1039=ORIENTED_EDGE('',*,*,#721,.T.);
#1040=ORIENTED_EDGE('',*,*,#725,.F.);
#1041=ORIENTED_EDGE('',*,*,#723,.F.);
#1042=ORIENTED_EDGE('',*,*,#732,.F.);
#1043=ORIENTED_EDGE('',*,*,#730,.F.);
#1044=ORIENTED_EDGE('',*,*,#750,.T.);
#1045=ORIENTED_EDGE('',*,*,#751,.T.);
#1046=ORIENTED_EDGE('',*,*,#752,.T.);
#1047=ORIENTED_EDGE('',*,*,#753,.T.);
#1048=ORIENTED_EDGE('',*,*,#751,.F.);
#1049=ORIENTED_EDGE('',*,*,#754,.F.);
#1050=ORIENTED_EDGE('',*,*,#755,.F.);
#1051=ORIENTED_EDGE('',*,*,#756,.F.);
#1052=ORIENTED_EDGE('',*,*,#757,.T.);
#1053=ORIENTED_EDGE('',*,*,#758,.T.);
#1054=ORIENTED_EDGE('',*,*,#759,.T.);
#1055=ORIENTED_EDGE('',*,*,#755,.T.);
#1056=ORIENTED_EDGE('',*,*,#758,.F.);
#1057=ORIENTED_EDGE('',*,*,#760,.F.);
#1058=ORIENTED_EDGE('',*,*,#761,.F.);
#1059=ORIENTED_EDGE('',*,*,#762,.F.);
#1060=ORIENTED_EDGE('',*,*,#763,.T.);
#1061=ORIENTED_EDGE('',*,*,#764,.T.);
#1062=ORIENTED_EDGE('',*,*,#765,.T.);
#1063=ORIENTED_EDGE('',*,*,#766,.T.);
#1064=ORIENTED_EDGE('',*,*,#753,.F.);
#1065=ORIENTED_EDGE('',*,*,#767,.F.);
#1066=ORIENTED_EDGE('',*,*,#764,.F.);
#1067=ORIENTED_EDGE('',*,*,#768,.F.);
#1068=ORIENTED_EDGE('',*,*,#769,.T.);
#1069=ORIENTED_EDGE('',*,*,#770,.T.);
#1070=ORIENTED_EDGE('',*,*,#771,.T.);
#1071=ORIENTED_EDGE('',*,*,#761,.T.);
#1072=ORIENTED_EDGE('',*,*,#766,.F.);
#1073=ORIENTED_EDGE('',*,*,#772,.F.);
#1074=ORIENTED_EDGE('',*,*,#770,.F.);
#1075=ORIENTED_EDGE('',*,*,#773,.F.);
#1076=ORIENTED_EDGE('',*,*,#774,.F.);
#1077=ORIENTED_EDGE('',*,*,#775,.T.);
#1078=ORIENTED_EDGE('',*,*,#776,.F.);
#1079=ORIENTED_EDGE('',*,*,#777,.F.);
#1080=ORIENTED_EDGE('',*,*,#778,.F.);
#1081=ORIENTED_EDGE('',*,*,#777,.T.);
#1082=ORIENTED_EDGE('',*,*,#779,.F.);
#1083=ORIENTED_EDGE('',*,*,#780,.F.);
#1084=ORIENTED_EDGE('',*,*,#754,.T.);
#1085=ORIENTED_EDGE('',*,*,#750,.F.);
#1086=ORIENTED_EDGE('',*,*,#768,.T.);
#1087=ORIENTED_EDGE('',*,*,#763,.F.);
#1088=ORIENTED_EDGE('',*,*,#773,.T.);
#1089=ORIENTED_EDGE('',*,*,#769,.F.);
#1090=ORIENTED_EDGE('',*,*,#760,.T.);
#1091=ORIENTED_EDGE('',*,*,#757,.F.);
#1092=ORIENTED_EDGE('',*,*,#781,.T.);
#1093=ORIENTED_EDGE('',*,*,#780,.T.);
#1094=ORIENTED_EDGE('',*,*,#782,.F.);
#1095=ORIENTED_EDGE('',*,*,#783,.F.);
#1096=ORIENTED_EDGE('',*,*,#784,.T.);
#1097=ORIENTED_EDGE('',*,*,#783,.T.);
#1098=ORIENTED_EDGE('',*,*,#785,.F.);
#1099=ORIENTED_EDGE('',*,*,#775,.F.);
#1100=ORIENTED_EDGE('',*,*,#756,.T.);
#1101=ORIENTED_EDGE('',*,*,#759,.F.);
#1102=ORIENTED_EDGE('',*,*,#762,.T.);
#1103=ORIENTED_EDGE('',*,*,#771,.F.);
#1104=ORIENTED_EDGE('',*,*,#772,.T.);
#1105=ORIENTED_EDGE('',*,*,#765,.F.);
#1106=ORIENTED_EDGE('',*,*,#767,.T.);
#1107=ORIENTED_EDGE('',*,*,#752,.F.);
#1108=ORIENTED_EDGE('',*,*,#785,.T.);
#1109=ORIENTED_EDGE('',*,*,#782,.T.);
#1110=ORIENTED_EDGE('',*,*,#779,.T.);
#1111=ORIENTED_EDGE('',*,*,#776,.T.);
#1112=ORIENTED_EDGE('',*,*,#784,.F.);
#1113=ORIENTED_EDGE('',*,*,#774,.T.);
#1114=ORIENTED_EDGE('',*,*,#778,.T.);
#1115=ORIENTED_EDGE('',*,*,#781,.F.);
#1116=PLANE('',#1251);
#1117=PLANE('',#1252);
#1118=PLANE('',#1253);
#1119=PLANE('',#1254);
#1120=PLANE('',#1255);
#1121=PLANE('',#1256);
#1122=PLANE('',#1257);
#1123=PLANE('',#1258);
#1124=PLANE('',#1259);
#1125=PLANE('',#1260);
#1126=PLANE('',#1261);
#1127=PLANE('',#1262);
#1128=PLANE('',#1263);
#1129=PLANE('',#1264);
#1130=PLANE('',#1265);
#1131=PLANE('',#1275);
#1132=PLANE('',#1276);
#1133=PLANE('',#1277);
#1134=PLANE('',#1278);
#1135=PLANE('',#1279);
#1136=PLANE('',#1280);
#1137=PLANE('',#1281);
#1138=PLANE('',#1282);
#1139=PLANE('',#1283);
#1140=PLANE('',#1284);
#1141=PLANE('',#1285);
#1142=PLANE('',#1286);
#1143=PLANE('',#1287);
#1144=PLANE('',#1288);
#1145=PLANE('',#1289);
#1146=PLANE('',#1290);
#1147=PLANE('',#1291);
#1148=PLANE('',#1295);
#1149=PLANE('',#1296);
#1150=PLANE('',#1297);
#1151=PLANE('',#1298);
#1152=PLANE('',#1299);
#1153=PLANE('',#1303);
#1154=PLANE('',#1306);
#1155=PLANE('',#1307);
#1156=PLANE('',#1308);
#1157=PLANE('',#1309);
#1158=PLANE('',#1311);
#1159=PLANE('',#1312);
#1160=PLANE('',#1316);
#1161=PLANE('',#1320);
#1162=PLANE('',#1324);
#1163=PLANE('',#1328);
#1164=PLANE('',#1329);
#1165=PLANE('',#1330);
#1166=PLANE('',#1331);
#1167=PLANE('',#1332);
#1168=PLANE('',#1333);
#1169=PLANE('',#1334);
#1170=ADVANCED_FACE('',(#72),#1116,.T.);
#1171=ADVANCED_FACE('',(#73),#1117,.T.);
#1172=ADVANCED_FACE('',(#74,#51),#1118,.T.);
#1173=ADVANCED_FACE('',(#75),#1119,.T.);
#1174=ADVANCED_FACE('',(#76),#1120,.T.);
#1175=ADVANCED_FACE('',(#77),#1121,.T.);
#1176=ADVANCED_FACE('',(#78),#1122,.T.);
#1177=ADVANCED_FACE('',(#79),#1123,.T.);
#1178=ADVANCED_FACE('',(#80),#1124,.T.);
#1179=ADVANCED_FACE('',(#81),#1125,.T.);
#1180=ADVANCED_FACE('',(#82),#1126,.T.);
#1181=ADVANCED_FACE('',(#83),#1127,.F.);
#1182=ADVANCED_FACE('',(#84),#1128,.F.);
#1183=ADVANCED_FACE('',(#85),#1129,.F.);
#1184=ADVANCED_FACE('',(#86),#1130,.F.);
#1185=ADVANCED_FACE('',(#87),#41,.F.);
#1186=ADVANCED_FACE('',(#88),#42,.F.);
#1187=ADVANCED_FACE('',(#89),#43,.F.);
#1188=ADVANCED_FACE('',(#90,#52,#53,#54,#55),#1131,.T.);
#1189=ADVANCED_FACE('',(#91,#56,#57,#58,#59),#1132,.T.);
#1190=ADVANCED_FACE('',(#92),#1133,.T.);
#1191=ADVANCED_FACE('',(#93),#1134,.T.);
#1192=ADVANCED_FACE('',(#94),#1135,.T.);
#1193=ADVANCED_FACE('',(#95),#1136,.T.);
#1194=ADVANCED_FACE('',(#96),#1137,.T.);
#1195=ADVANCED_FACE('',(#97,#60),#1138,.T.);
#1196=ADVANCED_FACE('',(#98,#61),#1139,.F.);
#1197=ADVANCED_FACE('',(#99),#1140,.T.);
#1198=ADVANCED_FACE('',(#100),#1141,.T.);
#1199=ADVANCED_FACE('',(#101),#1142,.T.);
#1200=ADVANCED_FACE('',(#102),#1143,.T.);
#1201=ADVANCED_FACE('',(#103),#1144,.T.);
#1202=ADVANCED_FACE('',(#104),#1145,.T.);
#1203=ADVANCED_FACE('',(#105),#1146,.T.);
#1204=ADVANCED_FACE('',(#106,#62,#63,#64,#65),#1147,.T.);
#1205=ADVANCED_FACE('',(#107),#1148,.T.);
#1206=ADVANCED_FACE('',(#108),#1149,.T.);
#1207=ADVANCED_FACE('',(#109),#1150,.T.);
#1208=ADVANCED_FACE('',(#110),#1151,.T.);
#1209=ADVANCED_FACE('',(#111,#66,#67,#68,#69),#1152,.F.);
#1210=ADVANCED_FACE('',(#112),#1153,.T.);
#1211=ADVANCED_FACE('',(#113),#44,.F.);
#1212=ADVANCED_FACE('',(#114),#45,.F.);
#1213=ADVANCED_FACE('',(#115),#1154,.T.);
#1214=ADVANCED_FACE('',(#116),#1155,.T.);
#1215=ADVANCED_FACE('',(#117),#1156,.T.);
#1216=ADVANCED_FACE('',(#118),#1157,.T.);
#1217=ADVANCED_FACE('',(#119),#46,.F.);
#1218=ADVANCED_FACE('',(#120),#1158,.T.);
#1219=ADVANCED_FACE('',(#121),#1159,.T.);
#1220=ADVANCED_FACE('',(#122),#47,.F.);
#1221=ADVANCED_FACE('',(#123),#1160,.F.);
#1222=ADVANCED_FACE('',(#124),#48,.F.);
#1223=ADVANCED_FACE('',(#125),#1161,.F.);
#1224=ADVANCED_FACE('',(#126),#49,.F.);
#1225=ADVANCED_FACE('',(#127),#1162,.F.);
#1226=ADVANCED_FACE('',(#128),#50,.F.);
#1227=ADVANCED_FACE('',(#129),#1163,.F.);
#1228=ADVANCED_FACE('',(#130),#1164,.T.);
#1229=ADVANCED_FACE('',(#131,#70),#1165,.T.);
#1230=ADVANCED_FACE('',(#132),#1166,.T.);
#1231=ADVANCED_FACE('',(#133,#71),#1167,.T.);
#1232=ADVANCED_FACE('',(#134),#1168,.T.);
#1233=ADVANCED_FACE('',(#135),#1169,.F.);
#1234=CLOSED_SHELL('',(#1170,#1171,#1172,#1173,#1174,#1175,#1176,#1177,
#1178,#1179,#1180,#1181,#1182,#1183,#1184,#1185,#1186,#1187,#1188,#1189));
#1235=CLOSED_SHELL('',(#1190,#1191,#1192,#1193,#1194,#1195,#1196,#1197,
#1198,#1199,#1200,#1201));
#1236=CLOSED_SHELL('',(#1202,#1203,#1204,#1205,#1206,#1207,#1208,#1209,
#1210,#1211,#1212,#1213,#1214,#1215,#1216,#1217,#1218,#1219));
#1237=CLOSED_SHELL('',(#1220,#1221,#1222,#1223,#1224,#1225,#1226,#1227,
#1228,#1229,#1230,#1231,#1232,#1233));
#1238=DERIVED_UNIT_ELEMENT(#1240,1.);
#1239=DERIVED_UNIT_ELEMENT(#1995,-3.);
#1240=(
MASS_UNIT()
NAMED_UNIT(*)
SI_UNIT(.KILO.,.GRAM.)
);
#1241=DERIVED_UNIT((#1238,#1239));
#1242=MEASURE_REPRESENTATION_ITEM('density measure',
POSITIVE_RATIO_MEASURE(7850.),#1241);
#1243=PROPERTY_DEFINITION_REPRESENTATION(#1248,#1245);
#1244=PROPERTY_DEFINITION_REPRESENTATION(#1249,#1246);
#1245=REPRESENTATION('material name',(#1247),#1992);
#1246=REPRESENTATION('density',(#1242),#1992);
#1247=DESCRIPTIVE_REPRESENTATION_ITEM('Steel','Steel');
#1248=PROPERTY_DEFINITION('material property','material name',#2002);
#1249=PROPERTY_DEFINITION('material property','density of part',#2002);
#1250=AXIS2_PLACEMENT_3D('',#1650,#1335,#1336);
#1251=AXIS2_PLACEMENT_3D('',#1651,#1337,#1338);
#1252=AXIS2_PLACEMENT_3D('',#1660,#1343,#1344);
#1253=AXIS2_PLACEMENT_3D('',#1666,#1348,#1349);
#1254=AXIS2_PLACEMENT_3D('',#1682,#1358,#1359);
#1255=AXIS2_PLACEMENT_3D('',#1686,#1362,#1363);
#1256=AXIS2_PLACEMENT_3D('',#1692,#1367,#1368);
#1257=AXIS2_PLACEMENT_3D('',#1696,#1371,#1372);
#1258=AXIS2_PLACEMENT_3D('',#1700,#1375,#1376);
#1259=AXIS2_PLACEMENT_3D('',#1702,#1378,#1379);
#1260=AXIS2_PLACEMENT_3D('',#1706,#1382,#1383);
#1261=AXIS2_PLACEMENT_3D('',#1710,#1386,#1387);
#1262=AXIS2_PLACEMENT_3D('',#1712,#1389,#1390);
#1263=AXIS2_PLACEMENT_3D('',#1721,#1395,#1396);
#1264=AXIS2_PLACEMENT_3D('',#1727,#1400,#1401);
#1265=AXIS2_PLACEMENT_3D('',#1733,#1405,#1406);
#1266=AXIS2_PLACEMENT_3D('',#1736,#1409,#1410);
#1267=AXIS2_PLACEMENT_3D('',#1738,#1411,#1412);
#1268=AXIS2_PLACEMENT_3D('',#1741,#1414,#1415);
#1269=AXIS2_PLACEMENT_3D('',#1742,#1416,#1417);
#1270=AXIS2_PLACEMENT_3D('',#1744,#1418,#1419);
#1271=AXIS2_PLACEMENT_3D('',#1747,#1421,#1422);
#1272=AXIS2_PLACEMENT_3D('',#1748,#1423,#1424);
#1273=AXIS2_PLACEMENT_3D('',#1750,#1425,#1426);
#1274=AXIS2_PLACEMENT_3D('',#1753,#1428,#1429);
#1275=AXIS2_PLACEMENT_3D('',#1754,#1430,#1431);
#1276=AXIS2_PLACEMENT_3D('',#1755,#1432,#1433);
#1277=AXIS2_PLACEMENT_3D('',#1756,#1434,#1435);
#1278=AXIS2_PLACEMENT_3D('',#1765,#1440,#1441);
#1279=AXIS2_PLACEMENT_3D('',#1771,#1445,#1446);
#1280=AXIS2_PLACEMENT_3D('',#1777,#1450,#1451);
#1281=AXIS2_PLACEMENT_3D('',#1783,#1455,#1456);
#1282=AXIS2_PLACEMENT_3D('',#1789,#1460,#1461);
#1283=AXIS2_PLACEMENT_3D('',#1799,#1467,#1468);
#1284=AXIS2_PLACEMENT_3D('',#1809,#1474,#1475);
#1285=AXIS2_PLACEMENT_3D('',#1812,#1478,#1479);
#1286=AXIS2_PLACEMENT_3D('',#1814,#1481,#1482);
#1287=AXIS2_PLACEMENT_3D('',#1816,#1484,#1485);
#1288=AXIS2_PLACEMENT_3D('',#1817,#1486,#1487);
#1289=AXIS2_PLACEMENT_3D('',#1818,#1488,#1489);
#1290=AXIS2_PLACEMENT_3D('',#1829,#1495,#1496);
#1291=AXIS2_PLACEMENT_3D('',#1839,#1502,#1503);
#1292=AXIS2_PLACEMENT_3D('',#1844,#1506,#1507);
#1293=AXIS2_PLACEMENT_3D('',#1854,#1512,#1513);
#1294=AXIS2_PLACEMENT_3D('',#1856,#1514,#1515);
#1295=AXIS2_PLACEMENT_3D('',#1857,#1516,#1517);
#1296=AXIS2_PLACEMENT_3D('',#1865,#1522,#1523);
#1297=AXIS2_PLACEMENT_3D('',#1869,#1526,#1527);
#1298=AXIS2_PLACEMENT_3D('',#1875,#1531,#1532);
#1299=AXIS2_PLACEMENT_3D('',#1879,#1535,#1536);
#1300=AXIS2_PLACEMENT_3D('',#1885,#1540,#1541);
#1301=AXIS2_PLACEMENT_3D('',#1895,#1546,#1547);
#1302=AXIS2_PLACEMENT_3D('',#1897,#1548,#1549);
#1303=AXIS2_PLACEMENT_3D('',#1898,#1550,#1551);
#1304=AXIS2_PLACEMENT_3D('',#1900,#1553,#1554);
#1305=AXIS2_PLACEMENT_3D('',#1902,#1556,#1557);
#1306=AXIS2_PLACEMENT_3D('',#1904,#1559,#1560);
#1307=AXIS2_PLACEMENT_3D('',#1907,#1563,#1564);
#1308=AXIS2_PLACEMENT_3D('',#1909,#1566,#1567);
#1309=AXIS2_PLACEMENT_3D('',#1911,#1569,#1570);
#1310=AXIS2_PLACEMENT_3D('',#1912,#1571,#1572);
#1311=AXIS2_PLACEMENT_3D('',#1914,#1574,#1575);
#1312=AXIS2_PLACEMENT_3D('',#1915,#1576,#1577);
#1313=AXIS2_PLACEMENT_3D('',#1916,#1578,#1579);
#1314=AXIS2_PLACEMENT_3D('',#1919,#1580,#1581);
#1315=AXIS2_PLACEMENT_3D('',#1923,#1583,#1584);
#1316=AXIS2_PLACEMENT_3D('',#1925,#1586,#1587);
#1317=AXIS2_PLACEMENT_3D('',#1931,#1591,#1592);
#1318=AXIS2_PLACEMENT_3D('',#1933,#1593,#1594);
#1319=AXIS2_PLACEMENT_3D('',#1936,#1596,#1597);
#1320=AXIS2_PLACEMENT_3D('',#1937,#1598,#1599);
#1321=AXIS2_PLACEMENT_3D('',#1943,#1603,#1604);
#1322=AXIS2_PLACEMENT_3D('',#1946,#1605,#1606);
#1323=AXIS2_PLACEMENT_3D('',#1950,#1608,#1609);
#1324=AXIS2_PLACEMENT_3D('',#1952,#1611,#1612);
#1325=AXIS2_PLACEMENT_3D('',#1955,#1615,#1616);
#1326=AXIS2_PLACEMENT_3D('',#1957,#1617,#1618);
#1327=AXIS2_PLACEMENT_3D('',#1960,#1620,#1621);
#1328=AXIS2_PLACEMENT_3D('',#1961,#1622,#1623);
#1329=AXIS2_PLACEMENT_3D('',#1964,#1626,#1627);
#1330=AXIS2_PLACEMENT_3D('',#1973,#1632,#1633);
#1331=AXIS2_PLACEMENT_3D('',#1979,#1637,#1638);
#1332=AXIS2_PLACEMENT_3D('',#1985,#1642,#1643);
#1333=AXIS2_PLACEMENT_3D('',#1988,#1646,#1647);
#1334=AXIS2_PLACEMENT_3D('',#1989,#1648,#1649);
#1335=DIRECTION('axis',(0.,0.,1.));
#1336=DIRECTION('refdir',(1.,0.,0.));
#1337=DIRECTION('center_axis',(0.,-0.707106781186548,0.707106781186548));
#1338=DIRECTION('ref_axis',(1.,0.,0.));
#1339=DIRECTION('',(0.,0.707106781186548,0.707106781186548));
#1340=DIRECTION('',(-1.,0.,0.));
#1341=DIRECTION('',(0.,-0.707106781186548,-0.707106781186548));
#1342=DIRECTION('',(1.,0.,0.));
#1343=DIRECTION('center_axis',(0.,0.,1.));
#1344=DIRECTION('ref_axis',(0.,-1.,0.));
#1345=DIRECTION('',(0.,-1.,0.));
#1346=DIRECTION('',(1.,0.,0.));
#1347=DIRECTION('',(0.,1.,0.));
#1348=DIRECTION('center_axis',(1.,0.,0.));
#1349=DIRECTION('ref_axis',(0.,0.,-1.));
#1350=DIRECTION('',(0.,0.,-1.));
#1351=DIRECTION('',(0.,-1.,0.));
#1352=DIRECTION('',(0.,0.,1.));
#1353=DIRECTION('',(0.,0.707106781186548,-0.707106781186548));
#1354=DIRECTION('',(0.,-1.,0.));
#1355=DIRECTION('',(0.,0.,1.));
#1356=DIRECTION('',(0.,1.,0.));
#1357=DIRECTION('',(0.,0.,-1.));
#1358=DIRECTION('center_axis',(0.,0.707106781186548,0.707106781186548));
#1359=DIRECTION('ref_axis',(1.,0.,0.));
#1360=DIRECTION('',(-1.,0.,0.));
#1361=DIRECTION('',(0.,-0.707106781186548,0.707106781186548));
#1362=DIRECTION('center_axis',(0.,-1.,0.));
#1363=DIRECTION('ref_axis',(0.,0.,-1.));
#1364=DIRECTION('',(0.,0.,-1.));
#1365=DIRECTION('',(1.,0.,0.));
#1366=DIRECTION('',(1.,0.,0.));
#1367=DIRECTION('center_axis',(0.,0.,-1.));
#1368=DIRECTION('ref_axis',(0.,1.,0.));
#1369=DIRECTION('',(0.,1.,0.));
#1370=DIRECTION('',(1.,0.,0.));
#1371=DIRECTION('center_axis',(0.,1.,0.));
#1372=DIRECTION('ref_axis',(0.,0.,1.));
#1373=DIRECTION('',(0.,0.,1.));
#1374=DIRECTION('',(1.,0.,0.));
#1375=DIRECTION('center_axis',(0.,0.,1.));
#1376=DIRECTION('ref_axis',(0.,-1.,0.));
#1377=DIRECTION('',(0.,-1.,0.));
#1378=DIRECTION('center_axis',(0.,1.,0.));
#1379=DIRECTION('ref_axis',(0.,0.,1.));
#1380=DIRECTION('',(0.939692620785908,0.,-0.342020143325669));
#1381=DIRECTION('',(0.,0.,1.));
#1382=DIRECTION('center_axis',(-0.342020143325669,0.,-0.939692620785908));
#1383=DIRECTION('ref_axis',(0.,1.,0.));
#1384=DIRECTION('',(-0.939692620785908,0.,0.342020143325669));
#1385=DIRECTION('',(0.,1.,0.));
#1386=DIRECTION('center_axis',(0.,-1.,0.));
#1387=DIRECTION('ref_axis',(0.,0.,-1.));
#1388=DIRECTION('',(0.,0.,-1.));
#1389=DIRECTION('center_axis',(0.,1.,0.));
#1390=DIRECTION('ref_axis',(0.,0.,1.));
#1391=DIRECTION('',(0.,0.,-1.));
#1392=DIRECTION('',(1.,0.,0.));
#1393=DIRECTION('',(0.,0.,1.));
#1394=DIRECTION('',(1.,0.,0.));
#1395=DIRECTION('center_axis',(0.,0.,-1.));
#1396=DIRECTION('ref_axis',(0.,1.,0.));
#1397=DIRECTION('',(0.,-1.,0.));
#1398=DIRECTION('',(0.,1.,0.));
#1399=DIRECTION('',(1.,0.,0.));
#1400=DIRECTION('center_axis',(0.,-1.,0.));
#1401=DIRECTION('ref_axis',(0.,0.,-1.));
#1402=DIRECTION('',(0.,0.,1.));
#1403=DIRECTION('',(0.,0.,-1.));
#1404=DIRECTION('',(1.,0.,0.));
#1405=DIRECTION('center_axis',(0.,0.,1.));
#1406=DIRECTION('ref_axis',(0.,-1.,0.));
#1407=DIRECTION('',(0.,1.,0.));
#1408=DIRECTION('',(0.,-1.,0.));
#1409=DIRECTION('center_axis',(1.,0.,0.));
#1410=DIRECTION('ref_axis',(0.,-1.,0.));
#1411=DIRECTION('center_axis',(1.,0.,0.));
#1412=DIRECTION('ref_axis',(0.,-1.,0.));
#1413=DIRECTION('',(1.,0.,0.));
#1414=DIRECTION('center_axis',(-1.,0.,0.));
#1415=DIRECTION('ref_axis',(0.,-1.,0.));
#1416=DIRECTION('center_axis',(1.,0.,0.));
#1417=DIRECTION('ref_axis',(0.,-1.,0.));
#1418=DIRECTION('center_axis',(1.,0.,0.));
#1419=DIRECTION('ref_axis',(0.,-1.,0.));
#1420=DIRECTION('',(1.,0.,0.));
#1421=DIRECTION('center_axis',(-1.,0.,0.));
#1422=DIRECTION('ref_axis',(0.,-1.,0.));
#1423=DIRECTION('center_axis',(1.,0.,0.));
#1424=DIRECTION('ref_axis',(0.,-1.,0.));
#1425=DIRECTION('center_axis',(1.,0.,0.));
#1426=DIRECTION('ref_axis',(0.,-1.,0.));
#1427=DIRECTION('',(1.,0.,0.));
#1428=DIRECTION('center_axis',(-1.,0.,0.));
#1429=DIRECTION('ref_axis',(0.,-1.,0.));
#1430=DIRECTION('center_axis',(1.,0.,0.));
#1431=DIRECTION('ref_axis',(0.,1.,0.));
#1432=DIRECTION('center_axis',(-1.,0.,0.));
#1433=DIRECTION('ref_axis',(0.,0.,1.));
#1434=DIRECTION('center_axis',(0.707106781186548,-0.707106781186547,0.));
#1435=DIRECTION('ref_axis',(0.,0.,-1.));
#1436=DIRECTION('',(0.,0.,-1.));
#1437=DIRECTION('',(0.684791078771735,0.684791078771737,-0.249243569363954));
#1438=DIRECTION('',(0.,0.,1.));
#1439=DIRECTION('',(-0.678598344545847,-0.678598344545849,0.281084637714817));
#1440=DIRECTION('center_axis',(0.707106781186547,-0.500000000000001,0.500000000000001));
#1441=DIRECTION('ref_axis',(0.577350269189627,0.,-0.816496580927725));
#1442=DIRECTION('',(0.,0.707106781186548,0.707106781186548));
#1443=DIRECTION('',(-0.678598344545847,-0.281084637714817,0.678598344545849));
#1444=DIRECTION('',(0.,-0.707106781186548,-0.707106781186548));
#1445=DIRECTION('center_axis',(0.707106781186548,0.,0.707106781186547));
#1446=DIRECTION('ref_axis',(0.707106781186547,0.,-0.707106781186548));
#1447=DIRECTION('',(0.,1.,0.));
#1448=DIRECTION('',(-0.678598344545847,0.281084637714818,0.678598344545848));
#1449=DIRECTION('',(0.,-1.,0.));
#1450=DIRECTION('center_axis',(0.707106781186547,0.5,0.5));
#1451=DIRECTION('ref_axis',(0.577350269189627,0.,-0.816496580927726));
#1452=DIRECTION('',(0.,-0.707106781186548,0.707106781186548));
#1453=DIRECTION('',(0.,0.707106781186548,-0.707106781186548));
#1454=DIRECTION('',(-0.678598344545847,0.678598344545848,0.281084637714817));
#1455=DIRECTION('center_axis',(0.707106781186548,0.707106781186547,0.));
#1456=DIRECTION('ref_axis',(0.,0.,-1.));
#1457=DIRECTION('',(0.,0.,-1.));
#1458=DIRECTION('',(-0.684791078771736,0.684791078771736,0.249243569363954));
#1459=DIRECTION('',(0.,0.,1.));
#1460=DIRECTION('center_axis',(1.,0.,0.));
#1461=DIRECTION('ref_axis',(0.,0.,-1.));
#1462=DIRECTION('',(0.,-1.,0.));
#1463=DIRECTION('',(0.,1.,0.));
#1464=DIRECTION('',(0.,0.,-1.));
#1465=DIRECTION('',(0.,-1.,0.));
#1466=DIRECTION('',(0.,0.,1.));
#1467=DIRECTION('center_axis',(1.,0.,0.));
#1468=DIRECTION('ref_axis',(0.,1.,0.));
#1469=DIRECTION('',(0.,-1.,0.));
#1470=DIRECTION('',(0.,1.,0.));
#1471=DIRECTION('',(0.,0.,1.));
#1472=DIRECTION('',(0.,-1.,0.));
#1473=DIRECTION('',(0.,0.,-1.));
#1474=DIRECTION('center_axis',(0.,1.,0.));
#1475=DIRECTION('ref_axis',(0.,0.,1.));
#1476=DIRECTION('',(1.,0.,0.));
#1477=DIRECTION('',(1.,0.,0.));
#1478=DIRECTION('center_axis',(0.,0.,1.));
#1479=DIRECTION('ref_axis',(0.,-1.,0.));
#1480=DIRECTION('',(1.,0.,0.));
#1481=DIRECTION('center_axis',(0.,-1.,0.));
#1482=DIRECTION('ref_axis',(0.,0.,-1.));
#1483=DIRECTION('',(1.,0.,0.));
#1484=DIRECTION('center_axis',(0.,0.,-1.));
#1485=DIRECTION('ref_axis',(0.,1.,0.));
#1486=DIRECTION('center_axis',(-0.342020143325669,0.,-0.939692620785908));
#1487=DIRECTION('ref_axis',(0.,1.,0.));
#1488=DIRECTION('center_axis',(-0.696364240320018,0.707106781186548,0.122787803968973));
#1489=DIRECTION('ref_axis',(0.17364817766693,0.,0.984807753012208));
#1490=DIRECTION('',(-0.669529388450742,-0.701673843159863,0.243688768362524));
#1491=DIRECTION('',(0.17364817766693,0.,0.984807753012208));
#1492=DIRECTION('',(0.644400477571772,0.540716203060936,0.540716203060937));
#1493=DIRECTION('',(0.510273605374738,0.608120402411343,-0.608120402411343));
#1494=DIRECTION('',(-0.17364817766693,0.,-0.984807753012208));
#1495=DIRECTION('center_axis',(-0.642787609686539,0.,0.766044443118978));
#1496=DIRECTION('ref_axis',(0.766044443118978,0.,0.642787609686539));
#1497=DIRECTION('',(0.,-1.,0.));
#1498=DIRECTION('',(-0.644400477571772,0.540716203060936,-0.540716203060937));
#1499=DIRECTION('',(0.644400477571772,0.540716203060937,0.540716203060937));
#1500=DIRECTION('',(0.,1.,0.));
#1501=DIRECTION('',(-0.644400477571772,0.540716203060937,-0.540716203060937));
#1502=DIRECTION('center_axis',(-0.984807753012208,0.,0.17364817766693));
#1503=DIRECTION('ref_axis',(0.,-1.,0.));
#1504=DIRECTION('',(0.,-1.,0.));
#1505=DIRECTION('',(-0.17364817766693,0.,-0.984807753012208));
#1506=DIRECTION('center_axis',(0.984807753012208,0.,-0.17364817766693));
#1507=DIRECTION('ref_axis',(0.17364817766693,0.,0.984807753012208));
#1508=DIRECTION('',(0.17364817766693,0.,0.984807753012208));
#1509=DIRECTION('',(0.,-1.,0.));
#1510=DIRECTION('',(-0.17364817766693,0.,-0.984807753012208));
#1511=DIRECTION('',(0.,1.,0.));
#1512=DIRECTION('center_axis',(0.984807753012208,0.,-0.17364817766693));
#1513=DIRECTION('ref_axis',(0.17364817766693,0.,0.984807753012208));
#1514=DIRECTION('center_axis',(0.984807753012208,0.,-0.17364817766693));
#1515=DIRECTION('ref_axis',(0.17364817766693,0.,0.984807753012208));
#1516=DIRECTION('center_axis',(-0.342020143325669,0.,-0.939692620785908));
#1517=DIRECTION('ref_axis',(0.,-1.,0.));
#1518=DIRECTION('',(0.939692620785908,0.,-0.342020143325669));
#1519=DIRECTION('',(0.,1.,0.));
#1520=DIRECTION('',(-0.939692620785908,0.,0.342020143325669));
#1521=DIRECTION('',(0.669529388450742,-0.701673843159863,-0.243688768362524));
#1522=DIRECTION('center_axis',(-0.696364240320019,-0.707106781186548,0.122787803968973));
#1523=DIRECTION('ref_axis',(0.17364817766693,0.,0.984807753012208));
#1524=DIRECTION('',(0.17364817766693,0.,0.984807753012208));
#1525=DIRECTION('',(-0.510273605374737,0.608120402411343,0.608120402411343));
#1526=DIRECTION('center_axis',(0.,0.,1.));
#1527=DIRECTION('ref_axis',(0.,1.,0.));
#1528=DIRECTION('',(-1.,0.,0.));
#1529=DIRECTION('',(0.,-1.,0.));
#1530=DIRECTION('',(1.,0.,0.));
#1531=DIRECTION('center_axis',(0.,-0.707106781186548,0.707106781186548));
#1532=DIRECTION('ref_axis',(1.,0.,0.));
#1533=DIRECTION('',(1.,0.,0.));
#1534=DIRECTION('',(0.,0.707106781186548,0.707106781186548));
#1535=DIRECTION('center_axis',(-1.,0.,0.));
#1536=DIRECTION('ref_axis',(0.,-1.,0.));
#1537=DIRECTION('',(0.,0.,-1.));
#1538=DIRECTION('',(0.,0.,1.));
#1539=DIRECTION('',(0.,0.707106781186548,-0.707106781186548));
#1540=DIRECTION('center_axis',(1.,0.,0.));
#1541=DIRECTION('ref_axis',(0.,-1.,0.));
#1542=DIRECTION('',(0.,0.,1.));
#1543=DIRECTION('',(0.,1.,0.));
#1544=DIRECTION('',(0.,0.,-1.));
#1545=DIRECTION('',(0.,-1.,0.));
#1546=DIRECTION('center_axis',(1.,0.,0.));
#1547=DIRECTION('ref_axis',(0.,-1.,0.));
#1548=DIRECTION('center_axis',(1.,0.,0.));
#1549=DIRECTION('ref_axis',(0.,-1.,0.));
#1550=DIRECTION('center_axis',(0.,0.707106781186548,0.707106781186548));
#1551=DIRECTION('ref_axis',(1.,0.,0.));
#1552=DIRECTION('',(-1.,0.,0.));
#1553=DIRECTION('center_axis',(-1.,0.,0.));
#1554=DIRECTION('ref_axis',(0.,-1.,0.));
#1555=DIRECTION('',(1.,0.,0.));
#1556=DIRECTION('center_axis',(-1.,0.,0.));
#1557=DIRECTION('ref_axis',(0.,-1.,0.));
#1558=DIRECTION('',(1.,0.,0.));
#1559=DIRECTION('center_axis',(0.,0.,1.));
#1560=DIRECTION('ref_axis',(0.,1.,0.));
#1561=DIRECTION('',(-1.,0.,0.));
#1562=DIRECTION('',(-1.,0.,0.));
#1563=DIRECTION('center_axis',(0.,1.,0.));
#1564=DIRECTION('ref_axis',(0.,0.,-1.));
#1565=DIRECTION('',(-1.,0.,0.));
#1566=DIRECTION('center_axis',(0.,0.,-1.));
#1567=DIRECTION('ref_axis',(0.,-1.,0.));
#1568=DIRECTION('',(-1.,0.,0.));
#1569=DIRECTION('center_axis',(0.,-1.,0.));
#1570=DIRECTION('ref_axis',(0.,0.,1.));
#1571=DIRECTION('center_axis',(-1.,0.,0.));
#1572=DIRECTION('ref_axis',(0.,-1.,0.));
#1573=DIRECTION('',(1.,0.,0.));
#1574=DIRECTION('center_axis',(0.,1.,0.));
#1575=DIRECTION('ref_axis',(0.,0.,-1.));
#1576=DIRECTION('center_axis',(0.,-1.,0.));
#1577=DIRECTION('ref_axis',(0.,0.,1.));
#1578=DIRECTION('center_axis',(0.984807753012229,0.,-0.173648177666814));
#1579=DIRECTION('ref_axis',(0.122787803968904,0.707106781186552,0.696364240320027));
#1580=DIRECTION('center_axis',(-0.984807753012208,0.,0.173648177666931));
#1581=DIRECTION('ref_axis',(0.122787803968904,0.707106781186552,0.696364240320027));
#1582=DIRECTION('',(0.984807753012229,0.,-0.173648177666814));
#1583=DIRECTION('center_axis',(1.,0.,0.));
#1584=DIRECTION('ref_axis',(0.,6.83347651389713E-16,1.));
#1585=DIRECTION('',(-0.984807753012229,0.,0.173648177666814));
#1586=DIRECTION('center_axis',(0.,1.,0.));
#1587=DIRECTION('ref_axis',(0.173648177666814,0.,0.984807753012229));
#1588=DIRECTION('',(0.173648177666931,0.,0.984807753012208));
#1589=DIRECTION('',(-0.984807753012229,0.,0.173648177666814));
#1590=DIRECTION('',(0.,0.,-1.));
#1591=DIRECTION('center_axis',(0.984807753012229,0.,-0.173648177666814));
#1592=DIRECTION('ref_axis',(-0.122787803968879,0.707106781186554,-0.696364240320029));
#1593=DIRECTION('center_axis',(-0.984807753012208,0.,0.173648177666931));
#1594=DIRECTION('ref_axis',(-0.122787803968879,0.707106781186554,-0.696364240320029));
#1595=DIRECTION('',(0.984807753012229,0.,-0.173648177666814));
#1596=DIRECTION('center_axis',(1.,0.,0.));
#1597=DIRECTION('ref_axis',(0.,1.02502147708457E-15,-1.));
#1598=DIRECTION('center_axis',(-0.173648177666814,0.,-0.984807753012229));
#1599=DIRECTION('ref_axis',(0.,1.,0.));
#1600=DIRECTION('',(0.,1.,0.));
#1601=DIRECTION('',(-0.984807753012229,0.,0.173648177666814));
#1602=DIRECTION('',(0.,-1.,0.));
#1603=DIRECTION('center_axis',(0.984807753012229,0.,-0.173648177666814));
#1604=DIRECTION('ref_axis',(0.122787803968879,-0.707106781186554,0.696364240320029));
#1605=DIRECTION('center_axis',(-0.984807753012208,0.,0.173648177666931));
#1606=DIRECTION('ref_axis',(0.122787803968879,-0.707106781186554,0.696364240320029));
#1607=DIRECTION('',(0.984807753012229,0.,-0.173648177666814));
#1608=DIRECTION('center_axis',(1.,0.,0.));
#1609=DIRECTION('ref_axis',(0.,-1.02502147708457E-15,1.));
#1610=DIRECTION('',(-0.984807753012229,0.,0.173648177666814));
#1611=DIRECTION('center_axis',(0.173648177666814,-4.1186427861589E-27,0.984807753012229));
#1612=DIRECTION('ref_axis',(3.42792725142059E-14,-1.,-6.04436062331261E-15));
#1613=DIRECTION('',(0.,1.,4.18217948991691E-27));
#1614=DIRECTION('',(-7.15194814277544E-28,-1.,-4.05607134769709E-27));
#1615=DIRECTION('center_axis',(0.984807753012229,0.,-0.173648177666814));
#1616=DIRECTION('ref_axis',(-0.122787803968904,-0.707106781186552,-0.696364240320027));
#1617=DIRECTION('center_axis',(-0.984807753012208,0.,0.173648177666931));
#1618=DIRECTION('ref_axis',(-0.122787803968904,-0.707106781186552,-0.696364240320027));
#1619=DIRECTION('',(0.984807753012229,0.,-0.173648177666814));
#1620=DIRECTION('center_axis',(1.,0.,0.));
#1621=DIRECTION('ref_axis',(0.,-6.83347651389713E-16,-1.));
#1622=DIRECTION('center_axis',(0.,-1.,0.));
#1623=DIRECTION('ref_axis',(-0.173648177666931,0.,-0.984807753012208));
#1624=DIRECTION('',(0.,0.,1.));
#1625=DIRECTION('',(-0.173648177666931,0.,-0.984807753012208));
#1626=DIRECTION('center_axis',(-4.47395533695768E-8,0.,-0.999999999999999));
#1627=DIRECTION('ref_axis',(0.999999999999999,0.,-4.47395533695768E-8));
#1628=DIRECTION('',(-0.999999999999999,0.,4.47395533695768E-8));
#1629=DIRECTION('',(0.,-1.,0.));
#1630=DIRECTION('',(0.999999999999999,0.,-4.47395533695768E-8));
#1631=DIRECTION('',(0.,-1.,0.));
#1632=DIRECTION('center_axis',(-0.984807753012208,0.,0.173648177666931));
#1633=DIRECTION('ref_axis',(-0.173648177666931,0.,-0.984807753012208));
#1634=DIRECTION('',(0.173648177666931,0.,0.984807753012208));
#1635=DIRECTION('',(-0.173648177666931,0.,-0.984807753012208));
#1636=DIRECTION('',(0.,-1.,0.));
#1637=DIRECTION('center_axis',(0.,0.,1.));
#1638=DIRECTION('ref_axis',(-1.,0.,0.));
#1639=DIRECTION('',(-1.,0.,0.));
#1640=DIRECTION('',(-1.,0.,0.));
#1641=DIRECTION('',(0.,-1.,0.));
#1642=DIRECTION('center_axis',(1.,0.,0.));
#1643=DIRECTION('ref_axis',(0.,0.,1.));
#1644=DIRECTION('',(0.,0.,1.));
#1645=DIRECTION('',(0.,0.,1.));
#1646=DIRECTION('center_axis',(0.,-1.,0.));
#1647=DIRECTION('ref_axis',(0.,0.,-1.));
#1648=DIRECTION('center_axis',(0.,-1.,0.));
#1649=DIRECTION('ref_axis',(1.,0.,0.));
#1650=CARTESIAN_POINT('',(0.,0.,0.));
#1651=CARTESIAN_POINT('Origin',(0.,-97.5,117.5));
#1652=CARTESIAN_POINT('',(15.,-100.,115.));
#1653=CARTESIAN_POINT('',(15.,-95.,120.));
#1654=CARTESIAN_POINT('',(15.,-100.,115.));
#1655=CARTESIAN_POINT('',(-2.,-95.,120.));
#1656=CARTESIAN_POINT('',(0.,-95.,120.));
#1657=CARTESIAN_POINT('',(-2.,-100.,115.));
#1658=CARTESIAN_POINT('',(-2.,-100.,115.));
#1659=CARTESIAN_POINT('',(0.,-100.,115.));
#1660=CARTESIAN_POINT('Origin',(0.,5.,120.));
#1661=CARTESIAN_POINT('',(15.,0.,120.));
#1662=CARTESIAN_POINT('',(15.,0.,120.));
#1663=CARTESIAN_POINT('',(-2.,0.,120.));
#1664=CARTESIAN_POINT('',(0.,0.,120.));
#1665=CARTESIAN_POINT('',(-2.,0.,120.));
#1666=CARTESIAN_POINT('Origin',(15.,-47.5,57.5));
#1667=CARTESIAN_POINT('',(15.,-100.,-30.1288225700005));
#1668=CARTESIAN_POINT('',(15.,-100.,120.));
#1669=CARTESIAN_POINT('',(15.,5.,-30.1288225700005));
#1670=CARTESIAN_POINT('',(15.,-73.75,-30.1288225700005));
#1671=CARTESIAN_POINT('',(15.,5.,115.));
#1672=CARTESIAN_POINT('',(15.,5.,120.));
#1673=CARTESIAN_POINT('',(15.,5.,115.));
#1674=CARTESIAN_POINT('',(15.,0.,0.));
#1675=CARTESIAN_POINT('',(15.,-95.,0.));
#1676=CARTESIAN_POINT('',(15.,-100.,0.));
#1677=CARTESIAN_POINT('',(15.,-95.,115.));
#1678=CARTESIAN_POINT('',(15.,-95.,0.));
#1679=CARTESIAN_POINT('',(15.,0.,115.));
#1680=CARTESIAN_POINT('',(15.,0.,115.));
#1681=CARTESIAN_POINT('',(15.,0.,-5.));
#1682=CARTESIAN_POINT('Origin',(0.,2.5,117.5));
#1683=CARTESIAN_POINT('',(-2.,5.,115.));
#1684=CARTESIAN_POINT('',(0.,5.,115.));
#1685=CARTESIAN_POINT('',(-2.,5.,115.));
#1686=CARTESIAN_POINT('Origin',(0.,0.,115.));
#1687=CARTESIAN_POINT('',(0.,0.,115.));
#1688=CARTESIAN_POINT('',(0.,0.,0.));
#1689=CARTESIAN_POINT('',(0.,0.,115.));
#1690=CARTESIAN_POINT('',(0.,0.,0.));
#1691=CARTESIAN_POINT('',(0.,0.,115.));
#1692=CARTESIAN_POINT('Origin',(0.,-95.,115.));
#1693=CARTESIAN_POINT('',(0.,-95.,115.));
#1694=CARTESIAN_POINT('',(0.,-95.,115.));
#1695=CARTESIAN_POINT('',(0.,-95.,115.));
#1696=CARTESIAN_POINT('Origin',(0.,-95.,0.));
#1697=CARTESIAN_POINT('',(0.,-95.,0.));
#1698=CARTESIAN_POINT('',(0.,-95.,0.));
#1699=CARTESIAN_POINT('',(0.,-95.,0.));
#1700=CARTESIAN_POINT('Origin',(0.,0.,0.));
#1701=CARTESIAN_POINT('',(0.,0.,0.));
#1702=CARTESIAN_POINT('Origin',(0.,5.,-5.));
#1703=CARTESIAN_POINT('',(-2.,5.,-23.9413285874751));
#1704=CARTESIAN_POINT('',(-4.79032230832741,5.,-22.925734323235));
#1705=CARTESIAN_POINT('',(-2.,5.,115.));
#1706=CARTESIAN_POINT('Origin',(-3.25906339625858,-100.,-23.4830669881829));
#1707=CARTESIAN_POINT('',(-2.,-100.,-23.9413285874751));
#1708=CARTESIAN_POINT('',(-24.8774351110318,-100.,-15.614623170703));
#1709=CARTESIAN_POINT('',(-2.,-73.75,-23.9413285874751));
#1710=CARTESIAN_POINT('Origin',(0.,-100.,120.));
#1711=CARTESIAN_POINT('',(-2.,-100.,0.));
#1712=CARTESIAN_POINT('Origin',(-2.,-10.,10.));
#1713=CARTESIAN_POINT('',(0.,-10.,105.));
#1714=CARTESIAN_POINT('',(0.,-10.,10.));
#1715=CARTESIAN_POINT('',(0.,-10.,33.75));
#1716=CARTESIAN_POINT('',(-2.,-10.,105.));
#1717=CARTESIAN_POINT('',(-2.,-10.,105.));
#1718=CARTESIAN_POINT('',(-2.,-10.,10.));
#1719=CARTESIAN_POINT('',(-2.,-10.,33.75));
#1720=CARTESIAN_POINT('',(-2.,-10.,10.));
#1721=CARTESIAN_POINT('Origin',(-2.,-85.,10.));
#1722=CARTESIAN_POINT('',(0.,-85.,10.));
#1723=CARTESIAN_POINT('',(0.,-66.25,10.));
#1724=CARTESIAN_POINT('',(-2.,-85.,10.));
#1725=CARTESIAN_POINT('',(-2.,-66.25,10.));
#1726=CARTESIAN_POINT('',(-2.,-85.,10.));
#1727=CARTESIAN_POINT('Origin',(-2.,-85.,105.));
#1728=CARTESIAN_POINT('',(0.,-85.,105.));
#1729=CARTESIAN_POINT('',(0.,-85.,81.25));
#1730=CARTESIAN_POINT('',(-2.,-85.,105.));
#1731=CARTESIAN_POINT('',(-2.,-85.,81.25));
#1732=CARTESIAN_POINT('',(-2.,-85.,105.));
#1733=CARTESIAN_POINT('Origin',(-2.,-10.,105.));
#1734=CARTESIAN_POINT('',(0.,-28.75,105.));
#1735=CARTESIAN_POINT('',(-2.,-28.75,105.));
#1736=CARTESIAN_POINT('Origin',(-2.,-3.0999999307096,111.249997513369));
#1737=CARTESIAN_POINT('',(-2.,-1.99999995529652,111.249997513369));
#1738=CARTESIAN_POINT('Origin',(-2.,-3.0999999307096,111.249997513369));
#1739=CARTESIAN_POINT('',(0.,-1.99999995529652,111.249997513369));
#1740=CARTESIAN_POINT('',(-2.,-1.99999995529652,111.249997513369));
#1741=CARTESIAN_POINT('Origin',(0.,-3.0999999307096,111.249997513369));
#1742=CARTESIAN_POINT('Origin',(-2.,-91.9999979436398,111.249997513369));
#1743=CARTESIAN_POINT('',(-2.,-90.8999979682267,111.249997513369));
#1744=CARTESIAN_POINT('Origin',(-2.,-91.9999979436398,111.249997513369));
#1745=CARTESIAN_POINT('',(0.,-90.8999979682267,111.249997513369));
#1746=CARTESIAN_POINT('',(-2.,-90.8999979682267,111.249997513369));
#1747=CARTESIAN_POINT('Origin',(0.,-91.9999979436398,111.249997513369));
#1748=CARTESIAN_POINT('Origin',(-2.,-91.9973271496644,2.25398840051327));
#1749=CARTESIAN_POINT('',(-2.,-90.8933354928285,2.25398840051327));
#1750=CARTESIAN_POINT('Origin',(-2.,-91.9973271496644,2.25398840051327));
#1751=CARTESIAN_POINT('',(0.,-90.8933354928285,2.25398840051327));
#1752=CARTESIAN_POINT('',(-2.,-90.8933354928285,2.25398840051327));
#1753=CARTESIAN_POINT('Origin',(0.,-91.9973271496644,2.25398840051327));
#1754=CARTESIAN_POINT('Origin',(0.,-47.5,57.5));
#1755=CARTESIAN_POINT('Origin',(-2.,-47.5,57.5));
#1756=CARTESIAN_POINT('Origin',(16.5,-98.5,88.75));
#1757=CARTESIAN_POINT('',(15.,-100.,115.));
#1758=CARTESIAN_POINT('',(15.,-100.,-30.1288225700005));
#1759=CARTESIAN_POINT('',(15.,-100.,120.));
#1760=CARTESIAN_POINT('',(18.,-97.,-31.2207332727991));
#1761=CARTESIAN_POINT('',(4.45272018936795,-110.547279810632,-26.2899266664536));
#1762=CARTESIAN_POINT('',(18.,-97.,113.757359312881));
#1763=CARTESIAN_POINT('',(18.,-97.,88.75));
#1764=CARTESIAN_POINT('',(18.,-97.,113.757359312881));
#1765=CARTESIAN_POINT('Origin',(16.5,-98.9393398282202,113.93933982822));
#1766=CARTESIAN_POINT('',(18.,-93.7573593128807,117.));
#1767=CARTESIAN_POINT('',(18.,-97.8786796564404,112.87867965644));
#1768=CARTESIAN_POINT('',(15.,-95.,120.));
#1769=CARTESIAN_POINT('',(18.,-93.7573593128807,117.));
#1770=CARTESIAN_POINT('',(15.,-100.,115.));
#1771=CARTESIAN_POINT('Origin',(16.5,-21.25,118.5));
#1772=CARTESIAN_POINT('',(18.,-1.24264068711928,117.));
#1773=CARTESIAN_POINT('',(18.,-21.25,117.));
#1774=CARTESIAN_POINT('',(15.,0.,120.));
#1775=CARTESIAN_POINT('',(18.,-1.24264068711927,117.));
#1776=CARTESIAN_POINT('',(15.,5.,120.));
#1777=CARTESIAN_POINT('Origin',(16.5,3.93933982822018,113.93933982822));
#1778=CARTESIAN_POINT('',(15.,5.,115.));
#1779=CARTESIAN_POINT('',(15.,5.,115.));
#1780=CARTESIAN_POINT('',(18.,2.,113.757359312881));
#1781=CARTESIAN_POINT('',(18.,2.87867965644036,112.87867965644));
#1782=CARTESIAN_POINT('',(18.,2.,113.757359312881));
#1783=CARTESIAN_POINT('Origin',(16.5,3.5,26.25));
#1784=CARTESIAN_POINT('',(18.,1.99999999999999,-31.2207332727991));
#1785=CARTESIAN_POINT('',(18.,2.,26.25));
#1786=CARTESIAN_POINT('',(15.,5.,-30.1288225700005));
#1787=CARTESIAN_POINT('',(34.4057512197261,-14.4057512197261,-37.1919383875559));
#1788=CARTESIAN_POINT('',(15.,5.,-5.));
#1789=CARTESIAN_POINT('Origin',(18.,-47.5,57.5));
#1790=CARTESIAN_POINT('',(18.,-73.75,-31.2207332727991));
#1791=CARTESIAN_POINT('',(18.,-86.,103.));
#1792=CARTESIAN_POINT('',(18.,-8.99999999999999,103.));
#1793=CARTESIAN_POINT('',(18.,-86.,103.));
#1794=CARTESIAN_POINT('',(18.,-8.99999999999999,12.));
#1795=CARTESIAN_POINT('',(18.,-8.99999999999999,103.));
#1796=CARTESIAN_POINT('',(18.,-86.,12.));
#1797=CARTESIAN_POINT('',(18.,-8.99999999999999,12.));
#1798=CARTESIAN_POINT('',(18.,-86.,12.));
#1799=CARTESIAN_POINT('Origin',(15.,-47.5,57.5));
#1800=CARTESIAN_POINT('',(15.,-73.75,-30.1288225700005));
#1801=CARTESIAN_POINT('',(15.,-86.,103.));
#1802=CARTESIAN_POINT('',(15.,-8.99999999999999,103.));
#1803=CARTESIAN_POINT('',(15.,-86.,103.));
#1804=CARTESIAN_POINT('',(15.,-86.,12.));
#1805=CARTESIAN_POINT('',(15.,-86.,12.));
#1806=CARTESIAN_POINT('',(15.,-8.99999999999999,12.));
#1807=CARTESIAN_POINT('',(15.,-8.99999999999999,12.));
#1808=CARTESIAN_POINT('',(15.,-8.99999999999999,103.));
#1809=CARTESIAN_POINT('Origin',(15.,-86.,12.));
#1810=CARTESIAN_POINT('',(15.,-86.,103.));
#1811=CARTESIAN_POINT('',(15.,-86.,12.));
#1812=CARTESIAN_POINT('Origin',(15.,-8.99999999999999,12.));
#1813=CARTESIAN_POINT('',(15.,-8.99999999999999,12.));
#1814=CARTESIAN_POINT('Origin',(15.,-8.99999999999999,103.));
#1815=CARTESIAN_POINT('',(15.,-8.99999999999999,103.));
#1816=CARTESIAN_POINT('Origin',(15.,-86.,103.));
#1817=CARTESIAN_POINT('Origin',(10.8363259155301,-100.,-28.6133691380679));
#1818=CARTESIAN_POINT('Origin',(-34.5121808254554,2.5,91.3557883491437));
#1819=CARTESIAN_POINT('',(-49.2699281178648,5.,-6.73648177666931));
#1820=CARTESIAN_POINT('',(-54.0408725885581,8.88178419700125E-15,-5.));
#1821=CARTESIAN_POINT('',(-43.3498954765126,11.2042564923123,-8.89119744400581));
#1822=CARTESIAN_POINT('',(-32.8682408883347,8.88178419700125E-15,115.075961234939));
#1823=CARTESIAN_POINT('',(-36.9742002079859,8.88178419700125E-15,91.789908793311));
#1824=CARTESIAN_POINT('',(-29.9341204441673,2.46201938253052,117.537980617469));
#1825=CARTESIAN_POINT('',(-48.7170336815739,-13.2987161874122,101.777245047527));
#1826=CARTESIAN_POINT('',(-27.8045018441136,5.,115.));
#1827=CARTESIAN_POINT('',(-22.8134572481204,10.9480953280729,109.051904671927));
#1828=CARTESIAN_POINT('',(-32.0501614429249,5.,90.9216679049764));
#1829=CARTESIAN_POINT('Origin',(-29.9341204441673,-73.75,117.537980617469));
#1830=CARTESIAN_POINT('',(-32.8682408883347,-95.,115.075961234939));
#1831=CARTESIAN_POINT('',(-32.8682408883347,-73.75,115.075961234939));
#1832=CARTESIAN_POINT('',(-29.9341204441673,-97.4620193825305,117.537980617469));
#1833=CARTESIAN_POINT('',(-52.3500221239146,-78.6528445505484,98.7288057854874));
#1834=CARTESIAN_POINT('',(-27.,-95.,120.));
#1835=CARTESIAN_POINT('',(-20.0164232867512,-89.1400833556147,125.859916644385));
#1836=CARTESIAN_POINT('',(-27.,0.,120.));
#1837=CARTESIAN_POINT('',(-27.,-73.75,120.));
#1838=CARTESIAN_POINT('',(-10.8699315753156,-13.534734466017,133.534734466017));
#1839=CARTESIAN_POINT('Origin',(-42.8530111041832,-47.5,58.449515436737));
#1840=CARTESIAN_POINT('',(-54.0408725885581,-95.,-5.));
#1841=CARTESIAN_POINT('',(-54.0408725885581,-21.25,-5.));
#1842=CARTESIAN_POINT('',(-47.662329686913,-95.,31.1745143937514));
#1843=CARTESIAN_POINT('',(-52.7617987158014,-90.8933354928285,2.25398840051326));
#1844=CARTESIAN_POINT('Origin',(-52.7617987158014,-91.9973271496644,2.25398840051327));
#1845=CARTESIAN_POINT('',(-51.3959678779312,-10.,10.));
#1846=CARTESIAN_POINT('',(-34.644904710627,-10.,105.));
#1847=CARTESIAN_POINT('',(-46.3797541494418,-10.,38.4483617216985));
#1848=CARTESIAN_POINT('',(-34.644904710627,-85.,105.));
#1849=CARTESIAN_POINT('',(-34.644904710627,-28.75,105.));
#1850=CARTESIAN_POINT('',(-51.3959678779312,-85.,10.));
#1851=CARTESIAN_POINT('',(-38.2567757454571,-85.,84.5160614653639));
#1852=CARTESIAN_POINT('',(-51.3959678779312,-66.25,10.));
#1853=CARTESIAN_POINT('',(-33.5428615196593,-1.99999995529652,111.249997513369));
#1854=CARTESIAN_POINT('Origin',(-33.5428615196593,-3.0999999307096,111.249997513369));
#1855=CARTESIAN_POINT('',(-33.5428615196593,-90.8999979682267,111.249997513369));
#1856=CARTESIAN_POINT('Origin',(-33.5428615196593,-91.9999979436398,111.249997513369));
#1857=CARTESIAN_POINT('Origin',(-5.13844863783039,5.,-22.7990267015315));
#1858=CARTESIAN_POINT('',(-2.,5.,-23.9413285874751));
#1859=CARTESIAN_POINT('',(-26.7001499533772,5.,-14.9512092225341));
#1860=CARTESIAN_POINT('',(-2.,-100.,-23.9413285874751));
#1861=CARTESIAN_POINT('',(-2.,-21.25,-23.9413285874751));
#1862=CARTESIAN_POINT('',(-49.2699281178648,-100.,-6.73648177666931));
#1863=CARTESIAN_POINT('',(-6.6130371506728,-100.,-22.262320375066));
#1864=CARTESIAN_POINT('',(-65.4646117035597,-83.0278012192611,-0.842098998116898));
#1865=CARTESIAN_POINT('Origin',(-45.2003103043825,-97.5,30.7403939495841));
#1866=CARTESIAN_POINT('',(-27.8045018441136,-100.,115.));
#1867=CARTESIAN_POINT('',(-42.738290921852,-100.,30.3062735054167));
#1868=CARTESIAN_POINT('',(-14.8002257497054,-115.497892754598,99.502107245402));
#1869=CARTESIAN_POINT('Origin',(-2.,-100.,120.));
#1870=CARTESIAN_POINT('',(-2.,-95.,120.));
#1871=CARTESIAN_POINT('',(-2.,-95.,120.));
#1872=CARTESIAN_POINT('',(-2.,0.,120.));
#1873=CARTESIAN_POINT('',(-2.,5.,120.));
#1874=CARTESIAN_POINT('',(-2.,0.,120.));
#1875=CARTESIAN_POINT('Origin',(-2.,-97.5,117.5));
#1876=CARTESIAN_POINT('',(-2.,-100.,115.));
#1877=CARTESIAN_POINT('',(-2.,-100.,115.));
#1878=CARTESIAN_POINT('',(-2.,-100.,115.));
#1879=CARTESIAN_POINT('Origin',(-2.,-47.5,57.5));
#1880=CARTESIAN_POINT('',(-2.,-100.,120.));
#1881=CARTESIAN_POINT('',(-2.,5.,115.));
#1882=CARTESIAN_POINT('',(-2.,5.,-5.));
#1883=CARTESIAN_POINT('',(-2.,5.,115.));
#1884=CARTESIAN_POINT('',(-2.,-90.8933354928285,2.25398840051327));
#1885=CARTESIAN_POINT('Origin',(-2.,-91.9973271496644,2.25398840051327));
#1886=CARTESIAN_POINT('',(-2.,-10.,10.));
#1887=CARTESIAN_POINT('',(-2.,-10.,105.));
#1888=CARTESIAN_POINT('',(-2.,-10.,10.));
#1889=CARTESIAN_POINT('',(-2.,-85.,10.));
#1890=CARTESIAN_POINT('',(-2.,-85.,10.));
#1891=CARTESIAN_POINT('',(-2.,-85.,105.));
#1892=CARTESIAN_POINT('',(-2.,-85.,105.));
#1893=CARTESIAN_POINT('',(-2.,-10.,105.));
#1894=CARTESIAN_POINT('',(-2.,-1.99999995529652,111.249997513369));
#1895=CARTESIAN_POINT('Origin',(-2.,-3.0999999307096,111.249997513369));
#1896=CARTESIAN_POINT('',(-2.,-90.8999979682267,111.249997513369));
#1897=CARTESIAN_POINT('Origin',(-2.,-91.9999979436398,111.249997513369));
#1898=CARTESIAN_POINT('Origin',(-2.,2.5,117.5));
#1899=CARTESIAN_POINT('',(-2.,5.,115.));
#1900=CARTESIAN_POINT('Origin',(-2.,-91.9999979436398,111.249997513369));
#1901=CARTESIAN_POINT('',(-2.,-90.8999979682267,111.249997513369));
#1902=CARTESIAN_POINT('Origin',(-2.,-3.0999999307096,111.249997513369));
#1903=CARTESIAN_POINT('',(-2.,-1.99999995529652,111.249997513369));
#1904=CARTESIAN_POINT('Origin',(-2.,-85.,10.));
#1905=CARTESIAN_POINT('',(-2.,-10.,10.));
#1906=CARTESIAN_POINT('',(-2.,-85.,10.));
#1907=CARTESIAN_POINT('Origin',(-2.,-85.,105.));
#1908=CARTESIAN_POINT('',(-2.,-85.,105.));
#1909=CARTESIAN_POINT('Origin',(-2.,-10.,105.));
#1910=CARTESIAN_POINT('',(-2.,-10.,105.));
#1911=CARTESIAN_POINT('Origin',(-2.,-10.,10.));
#1912=CARTESIAN_POINT('Origin',(-2.,-91.9973271496644,2.25398840051327));
#1913=CARTESIAN_POINT('',(-2.,-90.8933354928285,2.25398840051327));
#1914=CARTESIAN_POINT('Origin',(-2.,5.,120.));
#1915=CARTESIAN_POINT('Origin',(-2.,-100.,-5.));
#1916=CARTESIAN_POINT('Origin',(-50.826818862843,-43.75,13.2278044619234));
#1917=CARTESIAN_POINT('',(-50.7399947740094,-43.75,13.7202083384295));
#1918=CARTESIAN_POINT('',(-50.8268188628429,-43.25,13.2278044619234));
#1919=CARTESIAN_POINT('Origin',(-50.8268188628427,-43.75,13.2278044619234));
#1920=CARTESIAN_POINT('',(-46.3999989628792,-43.25,12.4472366748232));
#1921=CARTESIAN_POINT('',(-50.826818862843,-43.25,13.2278044619234));
#1922=CARTESIAN_POINT('',(-46.3999989628792,-43.75,12.9549499807661));
#1923=CARTESIAN_POINT('Origin',(-46.3999989628792,-43.75,12.4472366748232));
#1924=CARTESIAN_POINT('',(-50.7399947740096,-43.75,13.7202083384295));
#1925=CARTESIAN_POINT('Origin',(-51.1741152181766,-43.25,11.258188955899));
#1926=CARTESIAN_POINT('',(-51.0872911293433,-43.25,11.7505928324051));
#1927=CARTESIAN_POINT('',(-50.8461286662159,-43.25,13.1182931251137));
#1928=CARTESIAN_POINT('',(-46.3999989628792,-43.25,10.9240967569946));
#1929=CARTESIAN_POINT('',(-51.0872911293432,-43.25,11.7505928324051));
#1930=CARTESIAN_POINT('',(-46.3999989628792,-43.25,10.6290943661908));
#1931=CARTESIAN_POINT('Origin',(-51.0872911293432,-43.75,11.7505928324051));
#1932=CARTESIAN_POINT('',(-51.1741152181768,-43.75,11.258188955899));
#1933=CARTESIAN_POINT('Origin',(-51.0872911293429,-43.75,11.750592832405));
#1934=CARTESIAN_POINT('',(-46.3999989628792,-43.75,10.4163834510517));
#1935=CARTESIAN_POINT('',(-51.1741152181766,-43.75,11.258188955899));
#1936=CARTESIAN_POINT('Origin',(-46.3999989628792,-43.75,10.9240967569946));
#1937=CARTESIAN_POINT('Origin',(-51.1741152181766,-51.75,11.258188955899));
#1938=CARTESIAN_POINT('',(-51.1741152181768,-51.25,11.258188955899));
#1939=CARTESIAN_POINT('',(-51.1741152181768,-30.875,11.258188955899));
#1940=CARTESIAN_POINT('',(-46.3999989628792,-51.25,10.4163834510517));
#1941=CARTESIAN_POINT('',(-51.1741152181765,-51.25,11.2581889558989));
#1942=CARTESIAN_POINT('',(-46.3999989628792,-30.875,10.4163834510517));
#1943=CARTESIAN_POINT('Origin',(-50.8268188628428,-51.25,13.2278044619234));
#1944=CARTESIAN_POINT('',(-50.8268188628429,-51.75,13.2278044619234));
#1945=CARTESIAN_POINT('',(-50.7399947740094,-51.25,13.7202083384295));
#1946=CARTESIAN_POINT('Origin',(-50.8268188628427,-51.25,13.2278044619234));
#1947=CARTESIAN_POINT('',(-46.3999989628792,-51.25,12.9549499807661));
#1948=CARTESIAN_POINT('',(-50.7399947740094,-51.25,13.7202083384295));
#1949=CARTESIAN_POINT('',(-46.3999989628792,-51.75,12.4472366748232));
#1950=CARTESIAN_POINT('Origin',(-46.3999989628792,-51.25,12.4472366748232));
#1951=CARTESIAN_POINT('',(-50.8268188628428,-51.75,13.2278044619234));
#1952=CARTESIAN_POINT('Origin',(-50.7399947740096,-43.25,13.7202083384295));
#1953=CARTESIAN_POINT('',(-46.3999989628792,-26.625,12.9549499807661));
#1954=CARTESIAN_POINT('',(-50.7399947740094,-26.625,13.7202083384295));
#1955=CARTESIAN_POINT('Origin',(-51.0872911293431,-51.25,11.7505928324051));
#1956=CARTESIAN_POINT('',(-51.0872911293433,-51.75,11.7505928324051));
#1957=CARTESIAN_POINT('Origin',(-51.0872911293429,-51.25,11.750592832405));
#1958=CARTESIAN_POINT('',(-46.3999989628792,-51.75,10.9240967569946));
#1959=CARTESIAN_POINT('',(-51.0872911293431,-51.75,11.7505928324051));
#1960=CARTESIAN_POINT('Origin',(-46.3999989628792,-51.25,10.9240967569946));
#1961=CARTESIAN_POINT('Origin',(-50.7399947740093,-51.75,13.7202083384295));
#1962=CARTESIAN_POINT('',(-46.3999989628792,-51.75,11.860104057456));
#1963=CARTESIAN_POINT('',(-50.6290684441322,-51.75,14.349302816379));
#1964=CARTESIAN_POINT('Origin',(-51.3959678779312,-10.,10.));
#1965=CARTESIAN_POINT('',(-46.3999989628792,-10.,9.99999977648258));
#1966=CARTESIAN_POINT('',(-51.3959678779312,-10.,10.));
#1967=CARTESIAN_POINT('',(-46.3999989628792,-10.,9.99999977648258));
#1968=CARTESIAN_POINT('',(-46.3999989628792,-85.,9.99999977648258));
#1969=CARTESIAN_POINT('',(-46.3999989628792,-10.,9.99999977648258));
#1970=CARTESIAN_POINT('',(-51.3959678779312,-85.,10.));
#1971=CARTESIAN_POINT('',(-46.3999989628792,-85.,9.99999977648258));
#1972=CARTESIAN_POINT('',(-51.3959678779312,-10.,10.));
#1973=CARTESIAN_POINT('Origin',(-50.518142114255,-10.,14.9783972943285));
#1974=CARTESIAN_POINT('',(-50.518142114255,-10.,14.9783972943285));
#1975=CARTESIAN_POINT('',(-51.3959678779312,-10.,10.));
#1976=CARTESIAN_POINT('',(-50.518142114255,-85.,14.9783972943285));
#1977=CARTESIAN_POINT('',(-51.3959678779312,-85.,10.));
#1978=CARTESIAN_POINT('',(-50.518142114255,-10.,14.9783972943285));
#1979=CARTESIAN_POINT('Origin',(-46.3999989628792,-10.,14.9783972943285));
#1980=CARTESIAN_POINT('',(-46.3999989628792,-10.,14.9783972943285));
#1981=CARTESIAN_POINT('',(-46.3999989628792,-10.,14.9783972943285));
#1982=CARTESIAN_POINT('',(-46.3999989628792,-85.,14.9783972943285));
#1983=CARTESIAN_POINT('',(-46.3999989628792,-85.,14.9783972943285));
#1984=CARTESIAN_POINT('',(-46.3999989628792,-10.,14.9783972943285));
#1985=CARTESIAN_POINT('Origin',(-46.3999989628792,-10.,9.99999977648258));
#1986=CARTESIAN_POINT('',(-46.3999989628792,-10.,9.99999977648258));
#1987=CARTESIAN_POINT('',(-46.3999989628792,-85.,9.99999977648258));
#1988=CARTESIAN_POINT('Origin',(-48.8979834204052,-85.,12.4891985354055));
#1989=CARTESIAN_POINT('Origin',(-48.8979834204052,-10.,12.4891985354055));
#1990=UNCERTAINTY_MEASURE_WITH_UNIT(LENGTH_MEASURE(0.01),#1994,
'DISTANCE_ACCURACY_VALUE',
'Maximum model space distance between geometric entities at asserted c
onnectivities');
#1991=UNCERTAINTY_MEASURE_WITH_UNIT(LENGTH_MEASURE(0.01),#1994,
'DISTANCE_ACCURACY_VALUE',
'Maximum model space distance between geometric entities at asserted c
onnectivities');
#1992=(
GEOMETRIC_REPRESENTATION_CONTEXT(3)
GLOBAL_UNCERTAINTY_ASSIGNED_CONTEXT((#1990))
GLOBAL_UNIT_ASSIGNED_CONTEXT((#1994,#1996,#1997))
REPRESENTATION_CONTEXT('','3D')
);
#1993=(
GEOMETRIC_REPRESENTATION_CONTEXT(3)
GLOBAL_UNCERTAINTY_ASSIGNED_CONTEXT((#1991))
GLOBAL_UNIT_ASSIGNED_CONTEXT((#1994,#1996,#1997))
REPRESENTATION_CONTEXT('','3D')
);
#1994=(
LENGTH_UNIT()
NAMED_UNIT(*)
SI_UNIT(.MILLI.,.METRE.)
);
#1995=(
LENGTH_UNIT()
NAMED_UNIT(*)
SI_UNIT($,.METRE.)
);
#1996=(
NAMED_UNIT(*)
PLANE_ANGLE_UNIT()
SI_UNIT($,.RADIAN.)
);
#1997=(
NAMED_UNIT(*)
SI_UNIT($,.STERADIAN.)
SOLID_ANGLE_UNIT()
);
#1998=SHAPE_DEFINITION_REPRESENTATION(#1999,#2000);
#1999=PRODUCT_DEFINITION_SHAPE('',$,#2002);
#2000=SHAPE_REPRESENTATION('',(#1250),#1992);
#2001=PRODUCT_DEFINITION_CONTEXT('part definition',#2006,'design');
#2002=PRODUCT_DEFINITION('Untitled','Untitled v6',#2003,#2001);
#2003=PRODUCT_DEFINITION_FORMATION('',$,#2008);
#2004=PRODUCT_RELATED_PRODUCT_CATEGORY('Untitled v6','Untitled v6',(#2008));
#2005=APPLICATION_PROTOCOL_DEFINITION('international standard',
'automotive_design',2009,#2006);
#2006=APPLICATION_CONTEXT(
'Core Data for Automotive Mechanical Design Process');
#2007=PRODUCT_CONTEXT('part definition',#2006,'mechanical');
#2008=PRODUCT('Untitled','Untitled v6',$,(#2007));
#2009=PRESENTATION_STYLE_ASSIGNMENT((#2010));
#2010=SURFACE_STYLE_USAGE(.BOTH.,#2011);
#2011=SURFACE_SIDE_STYLE('',(#2012));
#2012=SURFACE_STYLE_FILL_AREA(#2013);
#2013=FILL_AREA_STYLE('Steel - Satin',(#2014));
#2014=FILL_AREA_STYLE_COLOUR('Steel - Satin',#2015);
#2015=COLOUR_RGB('Steel - Satin',0.627450980392157,0.627450980392157,0.627450980392157);
ENDSEC;
END-ISO-10303-21;
