ISO-10303-21;
HEADER;
/* Generated by software containing ST-Developer
 * from STEP Tools, Inc. (www.steptools.com) 
 */

FILE_DESCRIPTION(
/* description */ (''),
/* implementation_level */ '2;1');

FILE_NAME(
/* name */ 'Untitled.step',
/* time_stamp */ '2026-05-23T16:13:01+10:00',
/* author */ (''),
/* organization */ (''),
/* preprocessor_version */ 'ST-DEVELOPER v20.1',
/* originating_system */ 'Autodesk Translation Framework v14.24.0.0',
/* authorisation */ '');

FILE_SCHEMA (('AUTOMOTIVE_DESIGN { 1 0 10303 214 3 1 1 }'));
ENDSEC;

DATA;
#10=MECHANICAL_DESIGN_GEOMETRIC_PRESENTATION_REPRESENTATION('',(#13,#14),
#865);
#11=SHAPE_REPRESENTATION_RELATIONSHIP('SRR','None',#872,#12);
#12=ADVANCED_BREP_SHAPE_REPRESENTATION('',(#15,#16),#864);
#13=STYLED_ITEM('',(#881),#15);
#14=STYLED_ITEM('',(#881),#16);
#15=MANIFOLD_SOLID_BREP('Body1',#536);
#16=MANIFOLD_SOLID_BREP('Body3',#537);
#17=CIRCLE('',#565,1.09999997541308);
#18=CIRCLE('',#566,1.09999997541308);
#19=CIRCLE('',#568,1.09999997541308);
#20=CIRCLE('',#569,1.09999997541308);
#21=CIRCLE('',#571,1.10399165683589);
#22=CIRCLE('',#572,1.10399165683589);
#23=CYLINDRICAL_SURFACE('',#564,1.09999997541308);
#24=CYLINDRICAL_SURFACE('',#567,1.09999997541308);
#25=CYLINDRICAL_SURFACE('',#570,1.10399165683589);
#26=FACE_BOUND('',#74,.T.);
#27=FACE_BOUND('',#83,.T.);
#28=FACE_BOUND('',#84,.T.);
#29=FACE_BOUND('',#85,.T.);
#30=FACE_BOUND('',#86,.T.);
#31=FACE_BOUND('',#88,.T.);
#32=FACE_BOUND('',#89,.T.);
#33=FACE_BOUND('',#90,.T.);
#34=FACE_BOUND('',#91,.T.);
#35=FACE_BOUND('',#101,.T.);
#36=FACE_BOUND('',#103,.T.);
#37=FACE_OUTER_BOUND('',#65,.T.);
#38=FACE_OUTER_BOUND('',#66,.T.);
#39=FACE_OUTER_BOUND('',#67,.T.);
#40=FACE_OUTER_BOUND('',#68,.T.);
#41=FACE_OUTER_BOUND('',#69,.T.);
#42=FACE_OUTER_BOUND('',#70,.T.);
#43=FACE_OUTER_BOUND('',#71,.T.);
#44=FACE_OUTER_BOUND('',#72,.T.);
#45=FACE_OUTER_BOUND('',#73,.T.);
#46=FACE_OUTER_BOUND('',#75,.T.);
#47=FACE_OUTER_BOUND('',#76,.T.);
#48=FACE_OUTER_BOUND('',#77,.T.);
#49=FACE_OUTER_BOUND('',#78,.T.);
#50=FACE_OUTER_BOUND('',#79,.T.);
#51=FACE_OUTER_BOUND('',#80,.T.);
#52=FACE_OUTER_BOUND('',#81,.T.);
#53=FACE_OUTER_BOUND('',#82,.T.);
#54=FACE_OUTER_BOUND('',#87,.T.);
#55=FACE_OUTER_BOUND('',#92,.T.);
#56=FACE_OUTER_BOUND('',#93,.T.);
#57=FACE_OUTER_BOUND('',#94,.T.);
#58=FACE_OUTER_BOUND('',#95,.T.);
#59=FACE_OUTER_BOUND('',#96,.T.);
#60=FACE_OUTER_BOUND('',#97,.T.);
#61=FACE_OUTER_BOUND('',#98,.T.);
#62=FACE_OUTER_BOUND('',#99,.T.);
#63=FACE_OUTER_BOUND('',#100,.T.);
#64=FACE_OUTER_BOUND('',#102,.T.);
#65=EDGE_LOOP('',(#345,#346,#347,#348));
#66=EDGE_LOOP('',(#349,#350,#351,#352));
#67=EDGE_LOOP('',(#353,#354,#355,#356));
#68=EDGE_LOOP('',(#357,#358,#359,#360));
#69=EDGE_LOOP('',(#361,#362,#363,#364));
#70=EDGE_LOOP('',(#365,#366,#367,#368));
#71=EDGE_LOOP('',(#369,#370,#371,#372));
#72=EDGE_LOOP('',(#373,#374,#375,#376));
#73=EDGE_LOOP('',(#377,#378,#379,#380));
#74=EDGE_LOOP('',(#381,#382,#383,#384));
#75=EDGE_LOOP('',(#385,#386,#387,#388));
#76=EDGE_LOOP('',(#389,#390,#391,#392));
#77=EDGE_LOOP('',(#393,#394,#395,#396));
#78=EDGE_LOOP('',(#397,#398,#399,#400));
#79=EDGE_LOOP('',(#401,#402,#403,#404));
#80=EDGE_LOOP('',(#405,#406,#407,#408));
#81=EDGE_LOOP('',(#409,#410,#411,#412));
#82=EDGE_LOOP('',(#413,#414,#415,#416));
#83=EDGE_LOOP('',(#417,#418,#419,#420));
#84=EDGE_LOOP('',(#421));
#85=EDGE_LOOP('',(#422));
#86=EDGE_LOOP('',(#423));
#87=EDGE_LOOP('',(#424,#425,#426,#427));
#88=EDGE_LOOP('',(#428,#429,#430,#431));
#89=EDGE_LOOP('',(#432));
#90=EDGE_LOOP('',(#433));
#91=EDGE_LOOP('',(#434));
#92=EDGE_LOOP('',(#435,#436,#437,#438));
#93=EDGE_LOOP('',(#439,#440,#441,#442));
#94=EDGE_LOOP('',(#443,#444,#445,#446));
#95=EDGE_LOOP('',(#447,#448,#449,#450));
#96=EDGE_LOOP('',(#451,#452,#453,#454));
#97=EDGE_LOOP('',(#455,#456,#457,#458));
#98=EDGE_LOOP('',(#459,#460,#461,#462));
#99=EDGE_LOOP('',(#463,#464,#465,#466));
#100=EDGE_LOOP('',(#467,#468,#469,#470));
#101=EDGE_LOOP('',(#471,#472,#473,#474));
#102=EDGE_LOOP('',(#475,#476,#477,#478));
#103=EDGE_LOOP('',(#479,#480,#481,#482));
#104=LINE('',#722,#167);
#105=LINE('',#724,#168);
#106=LINE('',#726,#169);
#107=LINE('',#727,#170);
#108=LINE('',#730,#171);
#109=LINE('',#732,#172);
#110=LINE('',#733,#173);
#111=LINE('',#736,#174);
#112=LINE('',#738,#175);
#113=LINE('',#739,#176);
#114=LINE('',#741,#177);
#115=LINE('',#742,#178);
#116=LINE('',#746,#179);
#117=LINE('',#748,#180);
#118=LINE('',#750,#181);
#119=LINE('',#751,#182);
#120=LINE('',#754,#183);
#121=LINE('',#756,#184);
#122=LINE('',#757,#185);
#123=LINE('',#760,#186);
#124=LINE('',#762,#187);
#125=LINE('',#763,#188);
#126=LINE('',#765,#189);
#127=LINE('',#766,#190);
#128=LINE('',#771,#191);
#129=LINE('',#773,#192);
#130=LINE('',#775,#193);
#131=LINE('',#776,#194);
#132=LINE('',#779,#195);
#133=LINE('',#781,#196);
#134=LINE('',#782,#197);
#135=LINE('',#785,#198);
#136=LINE('',#787,#199);
#137=LINE('',#788,#200);
#138=LINE('',#790,#201);
#139=LINE('',#791,#202);
#140=LINE('',#796,#203);
#141=LINE('',#802,#204);
#142=LINE('',#808,#205);
#143=LINE('',#815,#206);
#144=LINE('',#817,#207);
#145=LINE('',#819,#208);
#146=LINE('',#820,#209);
#147=LINE('',#823,#210);
#148=LINE('',#825,#211);
#149=LINE('',#826,#212);
#150=LINE('',#829,#213);
#151=LINE('',#831,#214);
#152=LINE('',#832,#215);
#153=LINE('',#834,#216);
#154=LINE('',#835,#217);
#155=LINE('',#839,#218);
#156=LINE('',#841,#219);
#157=LINE('',#843,#220);
#158=LINE('',#844,#221);
#159=LINE('',#847,#222);
#160=LINE('',#849,#223);
#161=LINE('',#850,#224);
#162=LINE('',#853,#225);
#163=LINE('',#855,#226);
#164=LINE('',#856,#227);
#165=LINE('',#858,#228);
#166=LINE('',#859,#229);
#167=VECTOR('',#589,10.);
#168=VECTOR('',#590,10.);
#169=VECTOR('',#591,10.);
#170=VECTOR('',#592,10.);
#171=VECTOR('',#595,10.);
#172=VECTOR('',#596,10.);
#173=VECTOR('',#597,10.);
#174=VECTOR('',#600,10.);
#175=VECTOR('',#601,10.);
#176=VECTOR('',#602,10.);
#177=VECTOR('',#605,10.);
#178=VECTOR('',#606,10.);
#179=VECTOR('',#609,10.);
#180=VECTOR('',#610,10.);
#181=VECTOR('',#611,10.);
#182=VECTOR('',#612,10.);
#183=VECTOR('',#615,10.);
#184=VECTOR('',#616,10.);
#185=VECTOR('',#617,10.);
#186=VECTOR('',#620,10.);
#187=VECTOR('',#621,10.);
#188=VECTOR('',#622,10.);
#189=VECTOR('',#625,10.);
#190=VECTOR('',#626,10.);
#191=VECTOR('',#631,10.);
#192=VECTOR('',#632,10.);
#193=VECTOR('',#633,10.);
#194=VECTOR('',#634,10.);
#195=VECTOR('',#637,10.);
#196=VECTOR('',#638,10.);
#197=VECTOR('',#639,10.);
#198=VECTOR('',#642,10.);
#199=VECTOR('',#643,10.);
#200=VECTOR('',#644,10.);
#201=VECTOR('',#647,10.);
#202=VECTOR('',#648,10.);
#203=VECTOR('',#653,1.09999997541308);
#204=VECTOR('',#660,1.09999997541308);
#205=VECTOR('',#667,1.10399165683589);
#206=VECTOR('',#676,10.);
#207=VECTOR('',#677,10.);
#208=VECTOR('',#678,10.);
#209=VECTOR('',#679,10.);
#210=VECTOR('',#682,10.);
#211=VECTOR('',#683,10.);
#212=VECTOR('',#684,10.);
#213=VECTOR('',#687,10.);
#214=VECTOR('',#688,10.);
#215=VECTOR('',#689,10.);
#216=VECTOR('',#692,10.);
#217=VECTOR('',#693,10.);
#218=VECTOR('',#696,10.);
#219=VECTOR('',#697,10.);
#220=VECTOR('',#698,10.);
#221=VECTOR('',#699,10.);
#222=VECTOR('',#702,10.);
#223=VECTOR('',#703,10.);
#224=VECTOR('',#704,10.);
#225=VECTOR('',#707,10.);
#226=VECTOR('',#708,10.);
#227=VECTOR('',#709,10.);
#228=VECTOR('',#712,10.);
#229=VECTOR('',#713,10.);
#230=VERTEX_POINT('',#720);
#231=VERTEX_POINT('',#721);
#232=VERTEX_POINT('',#723);
#233=VERTEX_POINT('',#725);
#234=VERTEX_POINT('',#729);
#235=VERTEX_POINT('',#731);
#236=VERTEX_POINT('',#735);
#237=VERTEX_POINT('',#737);
#238=VERTEX_POINT('',#744);
#239=VERTEX_POINT('',#745);
#240=VERTEX_POINT('',#747);
#241=VERTEX_POINT('',#749);
#242=VERTEX_POINT('',#753);
#243=VERTEX_POINT('',#755);
#244=VERTEX_POINT('',#759);
#245=VERTEX_POINT('',#761);
#246=VERTEX_POINT('',#769);
#247=VERTEX_POINT('',#770);
#248=VERTEX_POINT('',#772);
#249=VERTEX_POINT('',#774);
#250=VERTEX_POINT('',#778);
#251=VERTEX_POINT('',#780);
#252=VERTEX_POINT('',#784);
#253=VERTEX_POINT('',#786);
#254=VERTEX_POINT('',#793);
#255=VERTEX_POINT('',#795);
#256=VERTEX_POINT('',#799);
#257=VERTEX_POINT('',#801);
#258=VERTEX_POINT('',#805);
#259=VERTEX_POINT('',#807);
#260=VERTEX_POINT('',#813);
#261=VERTEX_POINT('',#814);
#262=VERTEX_POINT('',#816);
#263=VERTEX_POINT('',#818);
#264=VERTEX_POINT('',#822);
#265=VERTEX_POINT('',#824);
#266=VERTEX_POINT('',#828);
#267=VERTEX_POINT('',#830);
#268=VERTEX_POINT('',#837);
#269=VERTEX_POINT('',#838);
#270=VERTEX_POINT('',#840);
#271=VERTEX_POINT('',#842);
#272=VERTEX_POINT('',#846);
#273=VERTEX_POINT('',#848);
#274=VERTEX_POINT('',#852);
#275=VERTEX_POINT('',#854);
#276=EDGE_CURVE('',#230,#231,#104,.T.);
#277=EDGE_CURVE('',#231,#232,#105,.T.);
#278=EDGE_CURVE('',#233,#232,#106,.T.);
#279=EDGE_CURVE('',#230,#233,#107,.T.);
#280=EDGE_CURVE('',#234,#230,#108,.T.);
#281=EDGE_CURVE('',#235,#233,#109,.T.);
#282=EDGE_CURVE('',#234,#235,#110,.T.);
#283=EDGE_CURVE('',#236,#234,#111,.T.);
#284=EDGE_CURVE('',#237,#235,#112,.T.);
#285=EDGE_CURVE('',#236,#237,#113,.T.);
#286=EDGE_CURVE('',#231,#236,#114,.T.);
#287=EDGE_CURVE('',#232,#237,#115,.T.);
#288=EDGE_CURVE('',#238,#239,#116,.T.);
#289=EDGE_CURVE('',#240,#239,#117,.T.);
#290=EDGE_CURVE('',#241,#240,#118,.T.);
#291=EDGE_CURVE('',#241,#238,#119,.T.);
#292=EDGE_CURVE('',#242,#240,#120,.T.);
#293=EDGE_CURVE('',#243,#242,#121,.T.);
#294=EDGE_CURVE('',#243,#241,#122,.T.);
#295=EDGE_CURVE('',#244,#242,#123,.T.);
#296=EDGE_CURVE('',#245,#244,#124,.T.);
#297=EDGE_CURVE('',#245,#243,#125,.T.);
#298=EDGE_CURVE('',#239,#244,#126,.T.);
#299=EDGE_CURVE('',#245,#238,#127,.T.);
#300=EDGE_CURVE('',#246,#247,#128,.T.);
#301=EDGE_CURVE('',#248,#246,#129,.T.);
#302=EDGE_CURVE('',#249,#248,#130,.T.);
#303=EDGE_CURVE('',#249,#247,#131,.T.);
#304=EDGE_CURVE('',#247,#250,#132,.T.);
#305=EDGE_CURVE('',#251,#249,#133,.T.);
#306=EDGE_CURVE('',#251,#250,#134,.T.);
#307=EDGE_CURVE('',#250,#252,#135,.T.);
#308=EDGE_CURVE('',#253,#251,#136,.T.);
#309=EDGE_CURVE('',#253,#252,#137,.T.);
#310=EDGE_CURVE('',#252,#246,#138,.T.);
#311=EDGE_CURVE('',#248,#253,#139,.T.);
#312=EDGE_CURVE('',#254,#254,#17,.T.);
#313=EDGE_CURVE('',#254,#255,#140,.T.);
#314=EDGE_CURVE('',#255,#255,#18,.T.);
#315=EDGE_CURVE('',#256,#256,#19,.T.);
#316=EDGE_CURVE('',#256,#257,#141,.T.);
#317=EDGE_CURVE('',#257,#257,#20,.T.);
#318=EDGE_CURVE('',#258,#258,#21,.T.);
#319=EDGE_CURVE('',#258,#259,#142,.T.);
#320=EDGE_CURVE('',#259,#259,#22,.T.);
#321=EDGE_CURVE('',#260,#261,#143,.T.);
#322=EDGE_CURVE('',#261,#262,#144,.T.);
#323=EDGE_CURVE('',#263,#262,#145,.T.);
#324=EDGE_CURVE('',#260,#263,#146,.T.);
#325=EDGE_CURVE('',#264,#260,#147,.T.);
#326=EDGE_CURVE('',#265,#263,#148,.T.);
#327=EDGE_CURVE('',#264,#265,#149,.T.);
#328=EDGE_CURVE('',#266,#264,#150,.T.);
#329=EDGE_CURVE('',#267,#265,#151,.T.);
#330=EDGE_CURVE('',#266,#267,#152,.T.);
#331=EDGE_CURVE('',#261,#266,#153,.T.);
#332=EDGE_CURVE('',#262,#267,#154,.T.);
#333=EDGE_CURVE('',#268,#269,#155,.T.);
#334=EDGE_CURVE('',#269,#270,#156,.T.);
#335=EDGE_CURVE('',#271,#270,#157,.T.);
#336=EDGE_CURVE('',#268,#271,#158,.T.);
#337=EDGE_CURVE('',#272,#268,#159,.T.);
#338=EDGE_CURVE('',#273,#271,#160,.T.);
#339=EDGE_CURVE('',#272,#273,#161,.T.);
#340=EDGE_CURVE('',#274,#272,#162,.T.);
#341=EDGE_CURVE('',#275,#273,#163,.T.);
#342=EDGE_CURVE('',#274,#275,#164,.T.);
#343=EDGE_CURVE('',#269,#274,#165,.T.);
#344=EDGE_CURVE('',#270,#275,#166,.T.);
#345=ORIENTED_EDGE('',*,*,#276,.T.);
#346=ORIENTED_EDGE('',*,*,#277,.T.);
#347=ORIENTED_EDGE('',*,*,#278,.F.);
#348=ORIENTED_EDGE('',*,*,#279,.F.);
#349=ORIENTED_EDGE('',*,*,#280,.T.);
#350=ORIENTED_EDGE('',*,*,#279,.T.);
#351=ORIENTED_EDGE('',*,*,#281,.F.);
#352=ORIENTED_EDGE('',*,*,#282,.F.);
#353=ORIENTED_EDGE('',*,*,#283,.T.);
#354=ORIENTED_EDGE('',*,*,#282,.T.);
#355=ORIENTED_EDGE('',*,*,#284,.F.);
#356=ORIENTED_EDGE('',*,*,#285,.F.);
#357=ORIENTED_EDGE('',*,*,#286,.T.);
#358=ORIENTED_EDGE('',*,*,#285,.T.);
#359=ORIENTED_EDGE('',*,*,#287,.F.);
#360=ORIENTED_EDGE('',*,*,#277,.F.);
#361=ORIENTED_EDGE('',*,*,#288,.T.);
#362=ORIENTED_EDGE('',*,*,#289,.F.);
#363=ORIENTED_EDGE('',*,*,#290,.F.);
#364=ORIENTED_EDGE('',*,*,#291,.T.);
#365=ORIENTED_EDGE('',*,*,#290,.T.);
#366=ORIENTED_EDGE('',*,*,#292,.F.);
#367=ORIENTED_EDGE('',*,*,#293,.F.);
#368=ORIENTED_EDGE('',*,*,#294,.T.);
#369=ORIENTED_EDGE('',*,*,#293,.T.);
#370=ORIENTED_EDGE('',*,*,#295,.F.);
#371=ORIENTED_EDGE('',*,*,#296,.F.);
#372=ORIENTED_EDGE('',*,*,#297,.T.);
#373=ORIENTED_EDGE('',*,*,#296,.T.);
#374=ORIENTED_EDGE('',*,*,#298,.F.);
#375=ORIENTED_EDGE('',*,*,#288,.F.);
#376=ORIENTED_EDGE('',*,*,#299,.F.);
#377=ORIENTED_EDGE('',*,*,#298,.T.);
#378=ORIENTED_EDGE('',*,*,#295,.T.);
#379=ORIENTED_EDGE('',*,*,#292,.T.);
#380=ORIENTED_EDGE('',*,*,#289,.T.);
#381=ORIENTED_EDGE('',*,*,#287,.T.);
#382=ORIENTED_EDGE('',*,*,#284,.T.);
#383=ORIENTED_EDGE('',*,*,#281,.T.);
#384=ORIENTED_EDGE('',*,*,#278,.T.);
#385=ORIENTED_EDGE('',*,*,#300,.F.);
#386=ORIENTED_EDGE('',*,*,#301,.F.);
#387=ORIENTED_EDGE('',*,*,#302,.F.);
#388=ORIENTED_EDGE('',*,*,#303,.T.);
#389=ORIENTED_EDGE('',*,*,#304,.F.);
#390=ORIENTED_EDGE('',*,*,#303,.F.);
#391=ORIENTED_EDGE('',*,*,#305,.F.);
#392=ORIENTED_EDGE('',*,*,#306,.T.);
#393=ORIENTED_EDGE('',*,*,#307,.F.);
#394=ORIENTED_EDGE('',*,*,#306,.F.);
#395=ORIENTED_EDGE('',*,*,#308,.F.);
#396=ORIENTED_EDGE('',*,*,#309,.T.);
#397=ORIENTED_EDGE('',*,*,#310,.F.);
#398=ORIENTED_EDGE('',*,*,#309,.F.);
#399=ORIENTED_EDGE('',*,*,#311,.F.);
#400=ORIENTED_EDGE('',*,*,#301,.T.);
#401=ORIENTED_EDGE('',*,*,#312,.F.);
#402=ORIENTED_EDGE('',*,*,#313,.T.);
#403=ORIENTED_EDGE('',*,*,#314,.F.);
#404=ORIENTED_EDGE('',*,*,#313,.F.);
#405=ORIENTED_EDGE('',*,*,#315,.F.);
#406=ORIENTED_EDGE('',*,*,#316,.T.);
#407=ORIENTED_EDGE('',*,*,#317,.F.);
#408=ORIENTED_EDGE('',*,*,#316,.F.);
#409=ORIENTED_EDGE('',*,*,#318,.F.);
#410=ORIENTED_EDGE('',*,*,#319,.T.);
#411=ORIENTED_EDGE('',*,*,#320,.F.);
#412=ORIENTED_EDGE('',*,*,#319,.F.);
#413=ORIENTED_EDGE('',*,*,#280,.F.);
#414=ORIENTED_EDGE('',*,*,#283,.F.);
#415=ORIENTED_EDGE('',*,*,#286,.F.);
#416=ORIENTED_EDGE('',*,*,#276,.F.);
#417=ORIENTED_EDGE('',*,*,#307,.T.);
#418=ORIENTED_EDGE('',*,*,#310,.T.);
#419=ORIENTED_EDGE('',*,*,#300,.T.);
#420=ORIENTED_EDGE('',*,*,#304,.T.);
#421=ORIENTED_EDGE('',*,*,#314,.T.);
#422=ORIENTED_EDGE('',*,*,#317,.T.);
#423=ORIENTED_EDGE('',*,*,#320,.T.);
#424=ORIENTED_EDGE('',*,*,#294,.F.);
#425=ORIENTED_EDGE('',*,*,#297,.F.);
#426=ORIENTED_EDGE('',*,*,#299,.T.);
#427=ORIENTED_EDGE('',*,*,#291,.F.);
#428=ORIENTED_EDGE('',*,*,#308,.T.);
#429=ORIENTED_EDGE('',*,*,#305,.T.);
#430=ORIENTED_EDGE('',*,*,#302,.T.);
#431=ORIENTED_EDGE('',*,*,#311,.T.);
#432=ORIENTED_EDGE('',*,*,#312,.T.);
#433=ORIENTED_EDGE('',*,*,#315,.T.);
#434=ORIENTED_EDGE('',*,*,#318,.T.);
#435=ORIENTED_EDGE('',*,*,#321,.T.);
#436=ORIENTED_EDGE('',*,*,#322,.T.);
#437=ORIENTED_EDGE('',*,*,#323,.F.);
#438=ORIENTED_EDGE('',*,*,#324,.F.);
#439=ORIENTED_EDGE('',*,*,#325,.T.);
#440=ORIENTED_EDGE('',*,*,#324,.T.);
#441=ORIENTED_EDGE('',*,*,#326,.F.);
#442=ORIENTED_EDGE('',*,*,#327,.F.);
#443=ORIENTED_EDGE('',*,*,#328,.T.);
#444=ORIENTED_EDGE('',*,*,#327,.T.);
#445=ORIENTED_EDGE('',*,*,#329,.F.);
#446=ORIENTED_EDGE('',*,*,#330,.F.);
#447=ORIENTED_EDGE('',*,*,#331,.T.);
#448=ORIENTED_EDGE('',*,*,#330,.T.);
#449=ORIENTED_EDGE('',*,*,#332,.F.);
#450=ORIENTED_EDGE('',*,*,#322,.F.);
#451=ORIENTED_EDGE('',*,*,#333,.T.);
#452=ORIENTED_EDGE('',*,*,#334,.T.);
#453=ORIENTED_EDGE('',*,*,#335,.F.);
#454=ORIENTED_EDGE('',*,*,#336,.F.);
#455=ORIENTED_EDGE('',*,*,#337,.T.);
#456=ORIENTED_EDGE('',*,*,#336,.T.);
#457=ORIENTED_EDGE('',*,*,#338,.F.);
#458=ORIENTED_EDGE('',*,*,#339,.F.);
#459=ORIENTED_EDGE('',*,*,#340,.T.);
#460=ORIENTED_EDGE('',*,*,#339,.T.);
#461=ORIENTED_EDGE('',*,*,#341,.F.);
#462=ORIENTED_EDGE('',*,*,#342,.F.);
#463=ORIENTED_EDGE('',*,*,#343,.T.);
#464=ORIENTED_EDGE('',*,*,#342,.T.);
#465=ORIENTED_EDGE('',*,*,#344,.F.);
#466=ORIENTED_EDGE('',*,*,#334,.F.);
#467=ORIENTED_EDGE('',*,*,#344,.T.);
#468=ORIENTED_EDGE('',*,*,#341,.T.);
#469=ORIENTED_EDGE('',*,*,#338,.T.);
#470=ORIENTED_EDGE('',*,*,#335,.T.);
#471=ORIENTED_EDGE('',*,*,#332,.T.);
#472=ORIENTED_EDGE('',*,*,#329,.T.);
#473=ORIENTED_EDGE('',*,*,#326,.T.);
#474=ORIENTED_EDGE('',*,*,#323,.T.);
#475=ORIENTED_EDGE('',*,*,#343,.F.);
#476=ORIENTED_EDGE('',*,*,#333,.F.);
#477=ORIENTED_EDGE('',*,*,#337,.F.);
#478=ORIENTED_EDGE('',*,*,#340,.F.);
#479=ORIENTED_EDGE('',*,*,#331,.F.);
#480=ORIENTED_EDGE('',*,*,#321,.F.);
#481=ORIENTED_EDGE('',*,*,#325,.F.);
#482=ORIENTED_EDGE('',*,*,#328,.F.);
#483=PLANE('',#551);
#484=PLANE('',#552);
#485=PLANE('',#553);
#486=PLANE('',#554);
#487=PLANE('',#555);
#488=PLANE('',#556);
#489=PLANE('',#557);
#490=PLANE('',#558);
#491=PLANE('',#559);
#492=PLANE('',#560);
#493=PLANE('',#561);
#494=PLANE('',#562);
#495=PLANE('',#563);
#496=PLANE('',#573);
#497=PLANE('',#574);
#498=PLANE('',#575);
#499=PLANE('',#576);
#500=PLANE('',#577);
#501=PLANE('',#578);
#502=PLANE('',#579);
#503=PLANE('',#580);
#504=PLANE('',#581);
#505=PLANE('',#582);
#506=PLANE('',#583);
#507=PLANE('',#584);
#508=ADVANCED_FACE('',(#37),#483,.T.);
#509=ADVANCED_FACE('',(#38),#484,.T.);
#510=ADVANCED_FACE('',(#39),#485,.T.);
#511=ADVANCED_FACE('',(#40),#486,.T.);
#512=ADVANCED_FACE('',(#41),#487,.T.);
#513=ADVANCED_FACE('',(#42),#488,.T.);
#514=ADVANCED_FACE('',(#43),#489,.T.);
#515=ADVANCED_FACE('',(#44),#490,.T.);
#516=ADVANCED_FACE('',(#45,#26),#491,.T.);
#517=ADVANCED_FACE('',(#46),#492,.F.);
#518=ADVANCED_FACE('',(#47),#493,.F.);
#519=ADVANCED_FACE('',(#48),#494,.F.);
#520=ADVANCED_FACE('',(#49),#495,.F.);
#521=ADVANCED_FACE('',(#50),#23,.F.);
#522=ADVANCED_FACE('',(#51),#24,.F.);
#523=ADVANCED_FACE('',(#52),#25,.F.);
#524=ADVANCED_FACE('',(#53,#27,#28,#29,#30),#496,.T.);
#525=ADVANCED_FACE('',(#54,#31,#32,#33,#34),#497,.T.);
#526=ADVANCED_FACE('',(#55),#498,.T.);
#527=ADVANCED_FACE('',(#56),#499,.T.);
#528=ADVANCED_FACE('',(#57),#500,.T.);
#529=ADVANCED_FACE('',(#58),#501,.T.);
#530=ADVANCED_FACE('',(#59),#502,.T.);
#531=ADVANCED_FACE('',(#60),#503,.T.);
#532=ADVANCED_FACE('',(#61),#504,.T.);
#533=ADVANCED_FACE('',(#62),#505,.T.);
#534=ADVANCED_FACE('',(#63,#35),#506,.T.);
#535=ADVANCED_FACE('',(#64,#36),#507,.F.);
#536=CLOSED_SHELL('',(#508,#509,#510,#511,#512,#513,#514,#515,#516,#517,
#518,#519,#520,#521,#522,#523,#524,#525));
#537=CLOSED_SHELL('',(#526,#527,#528,#529,#530,#531,#532,#533,#534,#535));
#538=DERIVED_UNIT_ELEMENT(#540,1.);
#539=DERIVED_UNIT_ELEMENT(#867,-3.);
#540=(
MASS_UNIT()
NAMED_UNIT(*)
SI_UNIT(.KILO.,.GRAM.)
);
#541=DERIVED_UNIT((#538,#539));
#542=MEASURE_REPRESENTATION_ITEM('density measure',
POSITIVE_RATIO_MEASURE(7850.),#541);
#543=PROPERTY_DEFINITION_REPRESENTATION(#548,#545);
#544=PROPERTY_DEFINITION_REPRESENTATION(#549,#546);
#545=REPRESENTATION('material name',(#547),#864);
#546=REPRESENTATION('density',(#542),#864);
#547=DESCRIPTIVE_REPRESENTATION_ITEM('Steel','Steel');
#548=PROPERTY_DEFINITION('material property','material name',#874);
#549=PROPERTY_DEFINITION('material property','density of part',#874);
#550=AXIS2_PLACEMENT_3D('',#718,#585,#586);
#551=AXIS2_PLACEMENT_3D('',#719,#587,#588);
#552=AXIS2_PLACEMENT_3D('',#728,#593,#594);
#553=AXIS2_PLACEMENT_3D('',#734,#598,#599);
#554=AXIS2_PLACEMENT_3D('',#740,#603,#604);
#555=AXIS2_PLACEMENT_3D('',#743,#607,#608);
#556=AXIS2_PLACEMENT_3D('',#752,#613,#614);
#557=AXIS2_PLACEMENT_3D('',#758,#618,#619);
#558=AXIS2_PLACEMENT_3D('',#764,#623,#624);
#559=AXIS2_PLACEMENT_3D('',#767,#627,#628);
#560=AXIS2_PLACEMENT_3D('',#768,#629,#630);
#561=AXIS2_PLACEMENT_3D('',#777,#635,#636);
#562=AXIS2_PLACEMENT_3D('',#783,#640,#641);
#563=AXIS2_PLACEMENT_3D('',#789,#645,#646);
#564=AXIS2_PLACEMENT_3D('',#792,#649,#650);
#565=AXIS2_PLACEMENT_3D('',#794,#651,#652);
#566=AXIS2_PLACEMENT_3D('',#797,#654,#655);
#567=AXIS2_PLACEMENT_3D('',#798,#656,#657);
#568=AXIS2_PLACEMENT_3D('',#800,#658,#659);
#569=AXIS2_PLACEMENT_3D('',#803,#661,#662);
#570=AXIS2_PLACEMENT_3D('',#804,#663,#664);
#571=AXIS2_PLACEMENT_3D('',#806,#665,#666);
#572=AXIS2_PLACEMENT_3D('',#809,#668,#669);
#573=AXIS2_PLACEMENT_3D('',#810,#670,#671);
#574=AXIS2_PLACEMENT_3D('',#811,#672,#673);
#575=AXIS2_PLACEMENT_3D('',#812,#674,#675);
#576=AXIS2_PLACEMENT_3D('',#821,#680,#681);
#577=AXIS2_PLACEMENT_3D('',#827,#685,#686);
#578=AXIS2_PLACEMENT_3D('',#833,#690,#691);
#579=AXIS2_PLACEMENT_3D('',#836,#694,#695);
#580=AXIS2_PLACEMENT_3D('',#845,#700,#701);
#581=AXIS2_PLACEMENT_3D('',#851,#705,#706);
#582=AXIS2_PLACEMENT_3D('',#857,#710,#711);
#583=AXIS2_PLACEMENT_3D('',#860,#714,#715);
#584=AXIS2_PLACEMENT_3D('',#861,#716,#717);
#585=DIRECTION('axis',(0.,0.,1.));
#586=DIRECTION('refdir',(1.,0.,0.));
#587=DIRECTION('center_axis',(0.,-1.,0.));
#588=DIRECTION('ref_axis',(0.,0.,-1.));
#589=DIRECTION('',(0.,0.,-1.));
#590=DIRECTION('',(1.,0.,0.));
#591=DIRECTION('',(0.,0.,-1.));
#592=DIRECTION('',(1.,0.,0.));
#593=DIRECTION('center_axis',(0.,0.,-1.));
#594=DIRECTION('ref_axis',(0.,1.,0.));
#595=DIRECTION('',(0.,1.,0.));
#596=DIRECTION('',(0.,1.,0.));
#597=DIRECTION('',(1.,0.,0.));
#598=DIRECTION('center_axis',(0.,1.,0.));
#599=DIRECTION('ref_axis',(0.,0.,1.));
#600=DIRECTION('',(0.,0.,1.));
#601=DIRECTION('',(0.,0.,1.));
#602=DIRECTION('',(1.,0.,0.));
#603=DIRECTION('center_axis',(0.,0.,1.));
#604=DIRECTION('ref_axis',(0.,-1.,0.));
#605=DIRECTION('',(0.,-1.,0.));
#606=DIRECTION('',(0.,-1.,0.));
#607=DIRECTION('center_axis',(0.,1.,0.));
#608=DIRECTION('ref_axis',(0.,0.,1.));
#609=DIRECTION('',(1.,0.,0.));
#610=DIRECTION('',(0.,0.,1.));
#611=DIRECTION('',(1.,0.,0.));
#612=DIRECTION('',(0.,0.,1.));
#613=DIRECTION('center_axis',(0.,0.,-1.));
#614=DIRECTION('ref_axis',(0.,1.,0.));
#615=DIRECTION('',(0.,1.,0.));
#616=DIRECTION('',(1.,0.,0.));
#617=DIRECTION('',(0.,1.,0.));
#618=DIRECTION('center_axis',(0.,-1.,0.));
#619=DIRECTION('ref_axis',(0.,0.,-1.));
#620=DIRECTION('',(0.,0.,-1.));
#621=DIRECTION('',(1.,0.,0.));
#622=DIRECTION('',(0.,0.,-1.));
#623=DIRECTION('center_axis',(0.,0.,1.));
#624=DIRECTION('ref_axis',(0.,-1.,0.));
#625=DIRECTION('',(0.,-1.,0.));
#626=DIRECTION('',(0.,1.,0.));
#627=DIRECTION('center_axis',(1.,0.,0.));
#628=DIRECTION('ref_axis',(0.,0.,-1.));
#629=DIRECTION('center_axis',(0.,1.,0.));
#630=DIRECTION('ref_axis',(0.,0.,1.));
#631=DIRECTION('',(0.,0.,-1.));
#632=DIRECTION('',(1.,0.,0.));
#633=DIRECTION('',(0.,0.,1.));
#634=DIRECTION('',(1.,0.,0.));
#635=DIRECTION('center_axis',(0.,0.,-1.));
#636=DIRECTION('ref_axis',(0.,1.,0.));
#637=DIRECTION('',(0.,-1.,0.));
#638=DIRECTION('',(0.,1.,0.));
#639=DIRECTION('',(1.,0.,0.));
#640=DIRECTION('center_axis',(0.,-1.,0.));
#641=DIRECTION('ref_axis',(0.,0.,-1.));
#642=DIRECTION('',(0.,0.,1.));
#643=DIRECTION('',(0.,0.,-1.));
#644=DIRECTION('',(1.,0.,0.));
#645=DIRECTION('center_axis',(0.,0.,1.));
#646=DIRECTION('ref_axis',(0.,-1.,0.));
#647=DIRECTION('',(0.,1.,0.));
#648=DIRECTION('',(0.,-1.,0.));
#649=DIRECTION('center_axis',(1.,0.,0.));
#650=DIRECTION('ref_axis',(0.,-1.,0.));
#651=DIRECTION('center_axis',(1.,0.,0.));
#652=DIRECTION('ref_axis',(0.,-1.,0.));
#653=DIRECTION('',(1.,0.,0.));
#654=DIRECTION('center_axis',(-1.,0.,0.));
#655=DIRECTION('ref_axis',(0.,-1.,0.));
#656=DIRECTION('center_axis',(1.,0.,0.));
#657=DIRECTION('ref_axis',(0.,-1.,0.));
#658=DIRECTION('center_axis',(1.,0.,0.));
#659=DIRECTION('ref_axis',(0.,-1.,0.));
#660=DIRECTION('',(1.,0.,0.));
#661=DIRECTION('center_axis',(-1.,0.,0.));
#662=DIRECTION('ref_axis',(0.,-1.,0.));
#663=DIRECTION('center_axis',(1.,0.,0.));
#664=DIRECTION('ref_axis',(0.,-1.,0.));
#665=DIRECTION('center_axis',(1.,0.,0.));
#666=DIRECTION('ref_axis',(0.,-1.,0.));
#667=DIRECTION('',(1.,0.,0.));
#668=DIRECTION('center_axis',(-1.,0.,0.));
#669=DIRECTION('ref_axis',(0.,-1.,0.));
#670=DIRECTION('center_axis',(1.,0.,0.));
#671=DIRECTION('ref_axis',(0.,1.,0.));
#672=DIRECTION('center_axis',(-1.,0.,0.));
#673=DIRECTION('ref_axis',(0.,0.,1.));
#674=DIRECTION('center_axis',(0.,1.,0.));
#675=DIRECTION('ref_axis',(0.,0.,1.));
#676=DIRECTION('',(0.,0.,1.));
#677=DIRECTION('',(1.,0.,0.));
#678=DIRECTION('',(0.,0.,1.));
#679=DIRECTION('',(1.,0.,0.));
#680=DIRECTION('center_axis',(0.,0.,1.));
#681=DIRECTION('ref_axis',(0.,-1.,0.));
#682=DIRECTION('',(0.,-1.,0.));
#683=DIRECTION('',(0.,-1.,0.));
#684=DIRECTION('',(1.,0.,0.));
#685=DIRECTION('center_axis',(0.,-1.,0.));
#686=DIRECTION('ref_axis',(0.,0.,-1.));
#687=DIRECTION('',(0.,0.,-1.));
#688=DIRECTION('',(0.,0.,-1.));
#689=DIRECTION('',(1.,0.,0.));
#690=DIRECTION('center_axis',(0.,0.,-1.));
#691=DIRECTION('ref_axis',(0.,1.,0.));
#692=DIRECTION('',(0.,1.,0.));
#693=DIRECTION('',(0.,1.,0.));
#694=DIRECTION('center_axis',(0.,0.,-1.));
#695=DIRECTION('ref_axis',(0.,1.,0.));
#696=DIRECTION('',(0.,1.,0.));
#697=DIRECTION('',(1.,0.,0.));
#698=DIRECTION('',(0.,1.,0.));
#699=DIRECTION('',(1.,0.,0.));
#700=DIRECTION('center_axis',(0.,-1.,0.));
#701=DIRECTION('ref_axis',(0.,0.,-1.));
#702=DIRECTION('',(0.,0.,-1.));
#703=DIRECTION('',(0.,0.,-1.));
#704=DIRECTION('',(1.,0.,0.));
#705=DIRECTION('center_axis',(0.,0.,1.));
#706=DIRECTION('ref_axis',(0.,-1.,0.));
#707=DIRECTION('',(0.,-1.,0.));
#708=DIRECTION('',(0.,-1.,0.));
#709=DIRECTION('',(1.,0.,0.));
#710=DIRECTION('center_axis',(0.,1.,0.));
#711=DIRECTION('ref_axis',(0.,0.,1.));
#712=DIRECTION('',(0.,0.,1.));
#713=DIRECTION('',(0.,0.,1.));
#714=DIRECTION('center_axis',(1.,0.,0.));
#715=DIRECTION('ref_axis',(0.,0.,-1.));
#716=DIRECTION('center_axis',(1.,0.,0.));
#717=DIRECTION('ref_axis',(0.,1.,0.));
#718=CARTESIAN_POINT('',(0.,0.,0.));
#719=CARTESIAN_POINT('Origin',(0.,0.,115.));
#720=CARTESIAN_POINT('',(0.,0.,115.));
#721=CARTESIAN_POINT('',(0.,0.,0.));
#722=CARTESIAN_POINT('',(0.,0.,115.));
#723=CARTESIAN_POINT('',(15.,0.,0.));
#724=CARTESIAN_POINT('',(0.,0.,0.));
#725=CARTESIAN_POINT('',(15.,0.,115.));
#726=CARTESIAN_POINT('',(15.,0.,-5.));
#727=CARTESIAN_POINT('',(0.,0.,115.));
#728=CARTESIAN_POINT('Origin',(0.,-95.,115.));
#729=CARTESIAN_POINT('',(0.,-95.,115.));
#730=CARTESIAN_POINT('',(0.,-95.,115.));
#731=CARTESIAN_POINT('',(15.,-95.,115.));
#732=CARTESIAN_POINT('',(15.,0.,115.));
#733=CARTESIAN_POINT('',(0.,-95.,115.));
#734=CARTESIAN_POINT('Origin',(0.,-95.,0.));
#735=CARTESIAN_POINT('',(0.,-95.,0.));
#736=CARTESIAN_POINT('',(0.,-95.,0.));
#737=CARTESIAN_POINT('',(15.,-95.,0.));
#738=CARTESIAN_POINT('',(15.,-95.,0.));
#739=CARTESIAN_POINT('',(0.,-95.,0.));
#740=CARTESIAN_POINT('Origin',(0.,0.,0.));
#741=CARTESIAN_POINT('',(0.,0.,0.));
#742=CARTESIAN_POINT('',(15.,-100.,0.));
#743=CARTESIAN_POINT('Origin',(0.,5.,-5.));
#744=CARTESIAN_POINT('',(-2.,5.,120.));
#745=CARTESIAN_POINT('',(15.,5.,120.));
#746=CARTESIAN_POINT('',(0.,5.,120.));
#747=CARTESIAN_POINT('',(15.,5.,-5.));
#748=CARTESIAN_POINT('',(15.,5.,120.));
#749=CARTESIAN_POINT('',(-2.,5.,-5.));
#750=CARTESIAN_POINT('',(0.,5.,-5.));
#751=CARTESIAN_POINT('',(-2.,5.,115.));
#752=CARTESIAN_POINT('Origin',(0.,-100.,-5.));
#753=CARTESIAN_POINT('',(15.,-100.,-5.));
#754=CARTESIAN_POINT('',(15.,0.,-5.));
#755=CARTESIAN_POINT('',(-2.,-100.,-5.));
#756=CARTESIAN_POINT('',(0.,-100.,-5.));
#757=CARTESIAN_POINT('',(-2.,0.,-5.));
#758=CARTESIAN_POINT('Origin',(0.,-100.,120.));
#759=CARTESIAN_POINT('',(15.,-100.,120.));
#760=CARTESIAN_POINT('',(15.,-100.,120.));
#761=CARTESIAN_POINT('',(-2.,-100.,120.));
#762=CARTESIAN_POINT('',(0.,-100.,120.));
#763=CARTESIAN_POINT('',(-2.,-100.,0.));
#764=CARTESIAN_POINT('Origin',(0.,5.,120.));
#765=CARTESIAN_POINT('',(15.,0.,120.));
#766=CARTESIAN_POINT('',(-2.,0.,120.));
#767=CARTESIAN_POINT('Origin',(15.,-47.5,57.5));
#768=CARTESIAN_POINT('Origin',(-2.,-10.,10.));
#769=CARTESIAN_POINT('',(0.,-10.,105.));
#770=CARTESIAN_POINT('',(0.,-10.,10.));
#771=CARTESIAN_POINT('',(0.,-10.,33.75));
#772=CARTESIAN_POINT('',(-2.,-10.,105.));
#773=CARTESIAN_POINT('',(-2.,-10.,105.));
#774=CARTESIAN_POINT('',(-2.,-10.,10.));
#775=CARTESIAN_POINT('',(-2.,-10.,33.75));
#776=CARTESIAN_POINT('',(-2.,-10.,10.));
#777=CARTESIAN_POINT('Origin',(-2.,-85.,10.));
#778=CARTESIAN_POINT('',(0.,-85.,10.));
#779=CARTESIAN_POINT('',(0.,-66.25,10.));
#780=CARTESIAN_POINT('',(-2.,-85.,10.));
#781=CARTESIAN_POINT('',(-2.,-66.25,10.));
#782=CARTESIAN_POINT('',(-2.,-85.,10.));
#783=CARTESIAN_POINT('Origin',(-2.,-85.,105.));
#784=CARTESIAN_POINT('',(0.,-85.,105.));
#785=CARTESIAN_POINT('',(0.,-85.,81.25));
#786=CARTESIAN_POINT('',(-2.,-85.,105.));
#787=CARTESIAN_POINT('',(-2.,-85.,81.25));
#788=CARTESIAN_POINT('',(-2.,-85.,105.));
#789=CARTESIAN_POINT('Origin',(-2.,-10.,105.));
#790=CARTESIAN_POINT('',(0.,-28.75,105.));
#791=CARTESIAN_POINT('',(-2.,-28.75,105.));
#792=CARTESIAN_POINT('Origin',(-2.,-3.0999999307096,111.249997513369));
#793=CARTESIAN_POINT('',(-2.,-1.99999995529652,111.249997513369));
#794=CARTESIAN_POINT('Origin',(-2.,-3.0999999307096,111.249997513369));
#795=CARTESIAN_POINT('',(0.,-1.99999995529652,111.249997513369));
#796=CARTESIAN_POINT('',(-2.,-1.99999995529652,111.249997513369));
#797=CARTESIAN_POINT('Origin',(0.,-3.0999999307096,111.249997513369));
#798=CARTESIAN_POINT('Origin',(-2.,-91.9999979436398,111.249997513369));
#799=CARTESIAN_POINT('',(-2.,-90.8999979682267,111.249997513369));
#800=CARTESIAN_POINT('Origin',(-2.,-91.9999979436398,111.249997513369));
#801=CARTESIAN_POINT('',(0.,-90.8999979682267,111.249997513369));
#802=CARTESIAN_POINT('',(-2.,-90.8999979682267,111.249997513369));
#803=CARTESIAN_POINT('Origin',(0.,-91.9999979436398,111.249997513369));
#804=CARTESIAN_POINT('Origin',(-2.,-91.9973271496644,2.25398840051327));
#805=CARTESIAN_POINT('',(-2.,-90.8933354928285,2.25398840051327));
#806=CARTESIAN_POINT('Origin',(-2.,-91.9973271496644,2.25398840051327));
#807=CARTESIAN_POINT('',(0.,-90.8933354928285,2.25398840051327));
#808=CARTESIAN_POINT('',(-2.,-90.8933354928285,2.25398840051327));
#809=CARTESIAN_POINT('Origin',(0.,-91.9973271496644,2.25398840051327));
#810=CARTESIAN_POINT('Origin',(0.,-47.5,57.5));
#811=CARTESIAN_POINT('Origin',(-2.,-47.5,57.5));
#812=CARTESIAN_POINT('Origin',(15.,-86.,12.));
#813=CARTESIAN_POINT('',(15.,-86.,12.));
#814=CARTESIAN_POINT('',(15.,-86.,103.));
#815=CARTESIAN_POINT('',(15.,-86.,12.));
#816=CARTESIAN_POINT('',(18.,-86.,103.));
#817=CARTESIAN_POINT('',(15.,-86.,103.));
#818=CARTESIAN_POINT('',(18.,-86.,12.));
#819=CARTESIAN_POINT('',(18.,-86.,12.));
#820=CARTESIAN_POINT('',(15.,-86.,12.));
#821=CARTESIAN_POINT('Origin',(15.,-8.99999999999999,12.));
#822=CARTESIAN_POINT('',(15.,-8.99999999999999,12.));
#823=CARTESIAN_POINT('',(15.,-8.99999999999999,12.));
#824=CARTESIAN_POINT('',(18.,-8.99999999999999,12.));
#825=CARTESIAN_POINT('',(18.,-8.99999999999999,12.));
#826=CARTESIAN_POINT('',(15.,-8.99999999999999,12.));
#827=CARTESIAN_POINT('Origin',(15.,-8.99999999999999,103.));
#828=CARTESIAN_POINT('',(15.,-8.99999999999999,103.));
#829=CARTESIAN_POINT('',(15.,-8.99999999999999,103.));
#830=CARTESIAN_POINT('',(18.,-8.99999999999999,103.));
#831=CARTESIAN_POINT('',(18.,-8.99999999999999,103.));
#832=CARTESIAN_POINT('',(15.,-8.99999999999999,103.));
#833=CARTESIAN_POINT('Origin',(15.,-86.,103.));
#834=CARTESIAN_POINT('',(15.,-86.,103.));
#835=CARTESIAN_POINT('',(18.,-86.,103.));
#836=CARTESIAN_POINT('Origin',(15.,-100.,-5.));
#837=CARTESIAN_POINT('',(15.,-100.,-5.));
#838=CARTESIAN_POINT('',(15.,5.,-5.));
#839=CARTESIAN_POINT('',(15.,-100.,-5.));
#840=CARTESIAN_POINT('',(18.,5.,-5.));
#841=CARTESIAN_POINT('',(15.,5.,-5.));
#842=CARTESIAN_POINT('',(18.,-100.,-5.));
#843=CARTESIAN_POINT('',(18.,-100.,-5.));
#844=CARTESIAN_POINT('',(15.,-100.,-5.));
#845=CARTESIAN_POINT('Origin',(15.,-100.,120.));
#846=CARTESIAN_POINT('',(15.,-100.,120.));
#847=CARTESIAN_POINT('',(15.,-100.,120.));
#848=CARTESIAN_POINT('',(18.,-100.,120.));
#849=CARTESIAN_POINT('',(18.,-100.,120.));
#850=CARTESIAN_POINT('',(15.,-100.,120.));
#851=CARTESIAN_POINT('Origin',(15.,5.,120.));
#852=CARTESIAN_POINT('',(15.,5.,120.));
#853=CARTESIAN_POINT('',(15.,5.,120.));
#854=CARTESIAN_POINT('',(18.,5.,120.));
#855=CARTESIAN_POINT('',(18.,5.,120.));
#856=CARTESIAN_POINT('',(15.,5.,120.));
#857=CARTESIAN_POINT('Origin',(15.,5.,-5.));
#858=CARTESIAN_POINT('',(15.,5.,-5.));
#859=CARTESIAN_POINT('',(18.,5.,-5.));
#860=CARTESIAN_POINT('Origin',(18.,-47.5,57.5));
#861=CARTESIAN_POINT('Origin',(15.,-47.5,57.5));
#862=UNCERTAINTY_MEASURE_WITH_UNIT(LENGTH_MEASURE(0.01),#866,
'DISTANCE_ACCURACY_VALUE',
'Maximum model space distance between geometric entities at asserted c
onnectivities');
#863=UNCERTAINTY_MEASURE_WITH_UNIT(LENGTH_MEASURE(0.01),#866,
'DISTANCE_ACCURACY_VALUE',
'Maximum model space distance between geometric entities at asserted c
onnectivities');
#864=(
GEOMETRIC_REPRESENTATION_CONTEXT(3)
GLOBAL_UNCERTAINTY_ASSIGNED_CONTEXT((#862))
GLOBAL_UNIT_ASSIGNED_CONTEXT((#866,#868,#869))
REPRESENTATION_CONTEXT('','3D')
);
#865=(
GEOMETRIC_REPRESENTATION_CONTEXT(3)
GLOBAL_UNCERTAINTY_ASSIGNED_CONTEXT((#863))
GLOBAL_UNIT_ASSIGNED_CONTEXT((#866,#868,#869))
REPRESENTATION_CONTEXT('','3D')
);
#866=(
LENGTH_UNIT()
NAMED_UNIT(*)
SI_UNIT(.MILLI.,.METRE.)
);
#867=(
LENGTH_UNIT()
NAMED_UNIT(*)
SI_UNIT($,.METRE.)
);
#868=(
NAMED_UNIT(*)
PLANE_ANGLE_UNIT()
SI_UNIT($,.RADIAN.)
);
#869=(
NAMED_UNIT(*)
SI_UNIT($,.STERADIAN.)
SOLID_ANGLE_UNIT()
);
#870=SHAPE_DEFINITION_REPRESENTATION(#871,#872);
#871=PRODUCT_DEFINITION_SHAPE('',$,#874);
#872=SHAPE_REPRESENTATION('',(#550),#864);
#873=PRODUCT_DEFINITION_CONTEXT('part definition',#878,'design');
#874=PRODUCT_DEFINITION('Untitled','Untitled v3',#875,#873);
#875=PRODUCT_DEFINITION_FORMATION('',$,#880);
#876=PRODUCT_RELATED_PRODUCT_CATEGORY('Untitled v3','Untitled v3',(#880));
#877=APPLICATION_PROTOCOL_DEFINITION('international standard',
'automotive_design',2009,#878);
#878=APPLICATION_CONTEXT(
'Core Data for Automotive Mechanical Design Process');
#879=PRODUCT_CONTEXT('part definition',#878,'mechanical');
#880=PRODUCT('Untitled','Untitled v3',$,(#879));
#881=PRESENTATION_STYLE_ASSIGNMENT((#882));
#882=SURFACE_STYLE_USAGE(.BOTH.,#883);
#883=SURFACE_SIDE_STYLE('',(#884));
#884=SURFACE_STYLE_FILL_AREA(#885);
#885=FILL_AREA_STYLE('Steel - Satin',(#886));
#886=FILL_AREA_STYLE_COLOUR('Steel - Satin',#887);
#887=COLOUR_RGB('Steel - Satin',0.627450980392157,0.627450980392157,0.627450980392157);
ENDSEC;
END-ISO-10303-21;
